G04 #@! TF.GenerationSoftware,KiCad,Pcbnew,(5.1.5-0-10_14)*
G04 #@! TF.CreationDate,2020-07-11T23:44:54-04:00*
G04 #@! TF.ProjectId,MacPlusVGA,4d616350-6c75-4735-9647-412e6b696361,rev?*
G04 #@! TF.SameCoordinates,Original*
G04 #@! TF.FileFunction,Soldermask,Bot*
G04 #@! TF.FilePolarity,Negative*
%FSLAX46Y46*%
G04 Gerber Fmt 4.6, Leading zero omitted, Abs format (unit mm)*
G04 Created by KiCad (PCBNEW (5.1.5-0-10_14)) date 2020-07-11 23:44:54*
%MOMM*%
%LPD*%
G04 APERTURE LIST*
%ADD10C,0.100000*%
G04 APERTURE END LIST*
D10*
G36*
X191725387Y-139188591D02*
G01*
X191870578Y-139217471D01*
X192030037Y-139283521D01*
X192173545Y-139379411D01*
X192295589Y-139501455D01*
X192391479Y-139644963D01*
X192457529Y-139804422D01*
X192491200Y-139973702D01*
X192491200Y-140146298D01*
X192457529Y-140315578D01*
X192391479Y-140475037D01*
X192295589Y-140618545D01*
X192173545Y-140740589D01*
X192030037Y-140836479D01*
X191870578Y-140902529D01*
X191725387Y-140931409D01*
X191701299Y-140936200D01*
X191528701Y-140936200D01*
X191504613Y-140931409D01*
X191359422Y-140902529D01*
X191199963Y-140836479D01*
X191056455Y-140740589D01*
X190934411Y-140618545D01*
X190838521Y-140475037D01*
X190772471Y-140315578D01*
X190738800Y-140146298D01*
X190738800Y-139973702D01*
X190772471Y-139804422D01*
X190838521Y-139644963D01*
X190934411Y-139501455D01*
X191056455Y-139379411D01*
X191199963Y-139283521D01*
X191359422Y-139217471D01*
X191504613Y-139188591D01*
X191528701Y-139183800D01*
X191701299Y-139183800D01*
X191725387Y-139188591D01*
G37*
G36*
X189435387Y-139188591D02*
G01*
X189580578Y-139217471D01*
X189740037Y-139283521D01*
X189883545Y-139379411D01*
X190005589Y-139501455D01*
X190101479Y-139644963D01*
X190167529Y-139804422D01*
X190201200Y-139973702D01*
X190201200Y-140146298D01*
X190167529Y-140315578D01*
X190101479Y-140475037D01*
X190005589Y-140618545D01*
X189883545Y-140740589D01*
X189740037Y-140836479D01*
X189580578Y-140902529D01*
X189435387Y-140931409D01*
X189411299Y-140936200D01*
X189238701Y-140936200D01*
X189214613Y-140931409D01*
X189069422Y-140902529D01*
X188909963Y-140836479D01*
X188766455Y-140740589D01*
X188644411Y-140618545D01*
X188548521Y-140475037D01*
X188482471Y-140315578D01*
X188448800Y-140146298D01*
X188448800Y-139973702D01*
X188482471Y-139804422D01*
X188548521Y-139644963D01*
X188644411Y-139501455D01*
X188766455Y-139379411D01*
X188909963Y-139283521D01*
X189069422Y-139217471D01*
X189214613Y-139188591D01*
X189238701Y-139183800D01*
X189411299Y-139183800D01*
X189435387Y-139188591D01*
G37*
G36*
X187145387Y-139188591D02*
G01*
X187290578Y-139217471D01*
X187450037Y-139283521D01*
X187593545Y-139379411D01*
X187715589Y-139501455D01*
X187811479Y-139644963D01*
X187877529Y-139804422D01*
X187911200Y-139973702D01*
X187911200Y-140146298D01*
X187877529Y-140315578D01*
X187811479Y-140475037D01*
X187715589Y-140618545D01*
X187593545Y-140740589D01*
X187450037Y-140836479D01*
X187290578Y-140902529D01*
X187145387Y-140931409D01*
X187121299Y-140936200D01*
X186948701Y-140936200D01*
X186924613Y-140931409D01*
X186779422Y-140902529D01*
X186619963Y-140836479D01*
X186476455Y-140740589D01*
X186354411Y-140618545D01*
X186258521Y-140475037D01*
X186192471Y-140315578D01*
X186158800Y-140146298D01*
X186158800Y-139973702D01*
X186192471Y-139804422D01*
X186258521Y-139644963D01*
X186354411Y-139501455D01*
X186476455Y-139379411D01*
X186619963Y-139283521D01*
X186779422Y-139217471D01*
X186924613Y-139188591D01*
X186948701Y-139183800D01*
X187121299Y-139183800D01*
X187145387Y-139188591D01*
G37*
G36*
X184855387Y-139188591D02*
G01*
X185000578Y-139217471D01*
X185160037Y-139283521D01*
X185303545Y-139379411D01*
X185425589Y-139501455D01*
X185521479Y-139644963D01*
X185587529Y-139804422D01*
X185621200Y-139973702D01*
X185621200Y-140146298D01*
X185587529Y-140315578D01*
X185521479Y-140475037D01*
X185425589Y-140618545D01*
X185303545Y-140740589D01*
X185160037Y-140836479D01*
X185000578Y-140902529D01*
X184855387Y-140931409D01*
X184831299Y-140936200D01*
X184658701Y-140936200D01*
X184634613Y-140931409D01*
X184489422Y-140902529D01*
X184329963Y-140836479D01*
X184186455Y-140740589D01*
X184064411Y-140618545D01*
X183968521Y-140475037D01*
X183902471Y-140315578D01*
X183868800Y-140146298D01*
X183868800Y-139973702D01*
X183902471Y-139804422D01*
X183968521Y-139644963D01*
X184064411Y-139501455D01*
X184186455Y-139379411D01*
X184329963Y-139283521D01*
X184489422Y-139217471D01*
X184634613Y-139188591D01*
X184658701Y-139183800D01*
X184831299Y-139183800D01*
X184855387Y-139188591D01*
G37*
G36*
X182565387Y-139188591D02*
G01*
X182710578Y-139217471D01*
X182870037Y-139283521D01*
X183013545Y-139379411D01*
X183135589Y-139501455D01*
X183231479Y-139644963D01*
X183297529Y-139804422D01*
X183331200Y-139973702D01*
X183331200Y-140146298D01*
X183297529Y-140315578D01*
X183231479Y-140475037D01*
X183135589Y-140618545D01*
X183013545Y-140740589D01*
X182870037Y-140836479D01*
X182710578Y-140902529D01*
X182565387Y-140931409D01*
X182541299Y-140936200D01*
X182368701Y-140936200D01*
X182344613Y-140931409D01*
X182199422Y-140902529D01*
X182039963Y-140836479D01*
X181896455Y-140740589D01*
X181774411Y-140618545D01*
X181678521Y-140475037D01*
X181612471Y-140315578D01*
X181578800Y-140146298D01*
X181578800Y-139973702D01*
X181612471Y-139804422D01*
X181678521Y-139644963D01*
X181774411Y-139501455D01*
X181896455Y-139379411D01*
X182039963Y-139283521D01*
X182199422Y-139217471D01*
X182344613Y-139188591D01*
X182368701Y-139183800D01*
X182541299Y-139183800D01*
X182565387Y-139188591D01*
G37*
G36*
X200405603Y-136153586D02*
G01*
X200405606Y-136153587D01*
X200405605Y-136153587D01*
X200783450Y-136310095D01*
X201123500Y-136537310D01*
X201412690Y-136826500D01*
X201639905Y-137166550D01*
X201696640Y-137303521D01*
X201796414Y-137544397D01*
X201876200Y-137945511D01*
X201876200Y-138354489D01*
X201796414Y-138755603D01*
X201796413Y-138755605D01*
X201639905Y-139133450D01*
X201412690Y-139473500D01*
X201123500Y-139762690D01*
X200783450Y-139989905D01*
X200470432Y-140119561D01*
X200405603Y-140146414D01*
X200004489Y-140226200D01*
X199595511Y-140226200D01*
X199194397Y-140146414D01*
X199129568Y-140119561D01*
X198816550Y-139989905D01*
X198476500Y-139762690D01*
X198187310Y-139473500D01*
X197960095Y-139133450D01*
X197803587Y-138755605D01*
X197803586Y-138755603D01*
X197723800Y-138354489D01*
X197723800Y-137945511D01*
X197803586Y-137544397D01*
X197903360Y-137303521D01*
X197960095Y-137166550D01*
X198187310Y-136826500D01*
X198476500Y-136537310D01*
X198816550Y-136310095D01*
X199194395Y-136153587D01*
X199194394Y-136153587D01*
X199194397Y-136153586D01*
X199595511Y-136073800D01*
X200004489Y-136073800D01*
X200405603Y-136153586D01*
G37*
G36*
X175405603Y-136153586D02*
G01*
X175405606Y-136153587D01*
X175405605Y-136153587D01*
X175783450Y-136310095D01*
X176123500Y-136537310D01*
X176412690Y-136826500D01*
X176639905Y-137166550D01*
X176696640Y-137303521D01*
X176796414Y-137544397D01*
X176876200Y-137945511D01*
X176876200Y-138354489D01*
X176796414Y-138755603D01*
X176796413Y-138755605D01*
X176639905Y-139133450D01*
X176412690Y-139473500D01*
X176123500Y-139762690D01*
X175783450Y-139989905D01*
X175470432Y-140119561D01*
X175405603Y-140146414D01*
X175004489Y-140226200D01*
X174595511Y-140226200D01*
X174194397Y-140146414D01*
X174129568Y-140119561D01*
X173816550Y-139989905D01*
X173476500Y-139762690D01*
X173187310Y-139473500D01*
X172960095Y-139133450D01*
X172803587Y-138755605D01*
X172803586Y-138755603D01*
X172723800Y-138354489D01*
X172723800Y-137945511D01*
X172803586Y-137544397D01*
X172903360Y-137303521D01*
X172960095Y-137166550D01*
X173187310Y-136826500D01*
X173476500Y-136537310D01*
X173816550Y-136310095D01*
X174194395Y-136153587D01*
X174194394Y-136153587D01*
X174194397Y-136153586D01*
X174595511Y-136073800D01*
X175004489Y-136073800D01*
X175405603Y-136153586D01*
G37*
G36*
X192870387Y-137208591D02*
G01*
X193015578Y-137237471D01*
X193175037Y-137303521D01*
X193318545Y-137399411D01*
X193440589Y-137521455D01*
X193536479Y-137664963D01*
X193602529Y-137824422D01*
X193636200Y-137993702D01*
X193636200Y-138166298D01*
X193602529Y-138335578D01*
X193536479Y-138495037D01*
X193440589Y-138638545D01*
X193318545Y-138760589D01*
X193175037Y-138856479D01*
X193015578Y-138922529D01*
X192870387Y-138951409D01*
X192846299Y-138956200D01*
X192673701Y-138956200D01*
X192649613Y-138951409D01*
X192504422Y-138922529D01*
X192344963Y-138856479D01*
X192201455Y-138760589D01*
X192079411Y-138638545D01*
X191983521Y-138495037D01*
X191917471Y-138335578D01*
X191883800Y-138166298D01*
X191883800Y-137993702D01*
X191917471Y-137824422D01*
X191983521Y-137664963D01*
X192079411Y-137521455D01*
X192201455Y-137399411D01*
X192344963Y-137303521D01*
X192504422Y-137237471D01*
X192649613Y-137208591D01*
X192673701Y-137203800D01*
X192846299Y-137203800D01*
X192870387Y-137208591D01*
G37*
G36*
X190580387Y-137208591D02*
G01*
X190725578Y-137237471D01*
X190885037Y-137303521D01*
X191028545Y-137399411D01*
X191150589Y-137521455D01*
X191246479Y-137664963D01*
X191312529Y-137824422D01*
X191346200Y-137993702D01*
X191346200Y-138166298D01*
X191312529Y-138335578D01*
X191246479Y-138495037D01*
X191150589Y-138638545D01*
X191028545Y-138760589D01*
X190885037Y-138856479D01*
X190725578Y-138922529D01*
X190580387Y-138951409D01*
X190556299Y-138956200D01*
X190383701Y-138956200D01*
X190359613Y-138951409D01*
X190214422Y-138922529D01*
X190054963Y-138856479D01*
X189911455Y-138760589D01*
X189789411Y-138638545D01*
X189693521Y-138495037D01*
X189627471Y-138335578D01*
X189593800Y-138166298D01*
X189593800Y-137993702D01*
X189627471Y-137824422D01*
X189693521Y-137664963D01*
X189789411Y-137521455D01*
X189911455Y-137399411D01*
X190054963Y-137303521D01*
X190214422Y-137237471D01*
X190359613Y-137208591D01*
X190383701Y-137203800D01*
X190556299Y-137203800D01*
X190580387Y-137208591D01*
G37*
G36*
X188290387Y-137208591D02*
G01*
X188435578Y-137237471D01*
X188595037Y-137303521D01*
X188738545Y-137399411D01*
X188860589Y-137521455D01*
X188956479Y-137664963D01*
X189022529Y-137824422D01*
X189056200Y-137993702D01*
X189056200Y-138166298D01*
X189022529Y-138335578D01*
X188956479Y-138495037D01*
X188860589Y-138638545D01*
X188738545Y-138760589D01*
X188595037Y-138856479D01*
X188435578Y-138922529D01*
X188290387Y-138951409D01*
X188266299Y-138956200D01*
X188093701Y-138956200D01*
X188069613Y-138951409D01*
X187924422Y-138922529D01*
X187764963Y-138856479D01*
X187621455Y-138760589D01*
X187499411Y-138638545D01*
X187403521Y-138495037D01*
X187337471Y-138335578D01*
X187303800Y-138166298D01*
X187303800Y-137993702D01*
X187337471Y-137824422D01*
X187403521Y-137664963D01*
X187499411Y-137521455D01*
X187621455Y-137399411D01*
X187764963Y-137303521D01*
X187924422Y-137237471D01*
X188069613Y-137208591D01*
X188093701Y-137203800D01*
X188266299Y-137203800D01*
X188290387Y-137208591D01*
G37*
G36*
X186000387Y-137208591D02*
G01*
X186145578Y-137237471D01*
X186305037Y-137303521D01*
X186448545Y-137399411D01*
X186570589Y-137521455D01*
X186666479Y-137664963D01*
X186732529Y-137824422D01*
X186766200Y-137993702D01*
X186766200Y-138166298D01*
X186732529Y-138335578D01*
X186666479Y-138495037D01*
X186570589Y-138638545D01*
X186448545Y-138760589D01*
X186305037Y-138856479D01*
X186145578Y-138922529D01*
X186000387Y-138951409D01*
X185976299Y-138956200D01*
X185803701Y-138956200D01*
X185779613Y-138951409D01*
X185634422Y-138922529D01*
X185474963Y-138856479D01*
X185331455Y-138760589D01*
X185209411Y-138638545D01*
X185113521Y-138495037D01*
X185047471Y-138335578D01*
X185013800Y-138166298D01*
X185013800Y-137993702D01*
X185047471Y-137824422D01*
X185113521Y-137664963D01*
X185209411Y-137521455D01*
X185331455Y-137399411D01*
X185474963Y-137303521D01*
X185634422Y-137237471D01*
X185779613Y-137208591D01*
X185803701Y-137203800D01*
X185976299Y-137203800D01*
X186000387Y-137208591D01*
G37*
G36*
X183710387Y-137208591D02*
G01*
X183855578Y-137237471D01*
X184015037Y-137303521D01*
X184158545Y-137399411D01*
X184280589Y-137521455D01*
X184376479Y-137664963D01*
X184442529Y-137824422D01*
X184476200Y-137993702D01*
X184476200Y-138166298D01*
X184442529Y-138335578D01*
X184376479Y-138495037D01*
X184280589Y-138638545D01*
X184158545Y-138760589D01*
X184015037Y-138856479D01*
X183855578Y-138922529D01*
X183710387Y-138951409D01*
X183686299Y-138956200D01*
X183513701Y-138956200D01*
X183489613Y-138951409D01*
X183344422Y-138922529D01*
X183184963Y-138856479D01*
X183041455Y-138760589D01*
X182919411Y-138638545D01*
X182823521Y-138495037D01*
X182757471Y-138335578D01*
X182723800Y-138166298D01*
X182723800Y-137993702D01*
X182757471Y-137824422D01*
X182823521Y-137664963D01*
X182919411Y-137521455D01*
X183041455Y-137399411D01*
X183184963Y-137303521D01*
X183344422Y-137237471D01*
X183489613Y-137208591D01*
X183513701Y-137203800D01*
X183686299Y-137203800D01*
X183710387Y-137208591D01*
G37*
G36*
X192491200Y-136976200D02*
G01*
X190738800Y-136976200D01*
X190738800Y-135223800D01*
X192491200Y-135223800D01*
X192491200Y-136976200D01*
G37*
G36*
X182565387Y-135228591D02*
G01*
X182710578Y-135257471D01*
X182870037Y-135323521D01*
X183013545Y-135419411D01*
X183135589Y-135541455D01*
X183231479Y-135684963D01*
X183297529Y-135844422D01*
X183331200Y-136013702D01*
X183331200Y-136186298D01*
X183297529Y-136355578D01*
X183231479Y-136515037D01*
X183135589Y-136658545D01*
X183013545Y-136780589D01*
X182870037Y-136876479D01*
X182710578Y-136942529D01*
X182565387Y-136971409D01*
X182541299Y-136976200D01*
X182368701Y-136976200D01*
X182344613Y-136971409D01*
X182199422Y-136942529D01*
X182039963Y-136876479D01*
X181896455Y-136780589D01*
X181774411Y-136658545D01*
X181678521Y-136515037D01*
X181612471Y-136355578D01*
X181578800Y-136186298D01*
X181578800Y-136013702D01*
X181612471Y-135844422D01*
X181678521Y-135684963D01*
X181774411Y-135541455D01*
X181896455Y-135419411D01*
X182039963Y-135323521D01*
X182199422Y-135257471D01*
X182344613Y-135228591D01*
X182368701Y-135223800D01*
X182541299Y-135223800D01*
X182565387Y-135228591D01*
G37*
G36*
X184855387Y-135228591D02*
G01*
X185000578Y-135257471D01*
X185160037Y-135323521D01*
X185303545Y-135419411D01*
X185425589Y-135541455D01*
X185521479Y-135684963D01*
X185587529Y-135844422D01*
X185621200Y-136013702D01*
X185621200Y-136186298D01*
X185587529Y-136355578D01*
X185521479Y-136515037D01*
X185425589Y-136658545D01*
X185303545Y-136780589D01*
X185160037Y-136876479D01*
X185000578Y-136942529D01*
X184855387Y-136971409D01*
X184831299Y-136976200D01*
X184658701Y-136976200D01*
X184634613Y-136971409D01*
X184489422Y-136942529D01*
X184329963Y-136876479D01*
X184186455Y-136780589D01*
X184064411Y-136658545D01*
X183968521Y-136515037D01*
X183902471Y-136355578D01*
X183868800Y-136186298D01*
X183868800Y-136013702D01*
X183902471Y-135844422D01*
X183968521Y-135684963D01*
X184064411Y-135541455D01*
X184186455Y-135419411D01*
X184329963Y-135323521D01*
X184489422Y-135257471D01*
X184634613Y-135228591D01*
X184658701Y-135223800D01*
X184831299Y-135223800D01*
X184855387Y-135228591D01*
G37*
G36*
X187145387Y-135228591D02*
G01*
X187290578Y-135257471D01*
X187450037Y-135323521D01*
X187593545Y-135419411D01*
X187715589Y-135541455D01*
X187811479Y-135684963D01*
X187877529Y-135844422D01*
X187911200Y-136013702D01*
X187911200Y-136186298D01*
X187877529Y-136355578D01*
X187811479Y-136515037D01*
X187715589Y-136658545D01*
X187593545Y-136780589D01*
X187450037Y-136876479D01*
X187290578Y-136942529D01*
X187145387Y-136971409D01*
X187121299Y-136976200D01*
X186948701Y-136976200D01*
X186924613Y-136971409D01*
X186779422Y-136942529D01*
X186619963Y-136876479D01*
X186476455Y-136780589D01*
X186354411Y-136658545D01*
X186258521Y-136515037D01*
X186192471Y-136355578D01*
X186158800Y-136186298D01*
X186158800Y-136013702D01*
X186192471Y-135844422D01*
X186258521Y-135684963D01*
X186354411Y-135541455D01*
X186476455Y-135419411D01*
X186619963Y-135323521D01*
X186779422Y-135257471D01*
X186924613Y-135228591D01*
X186948701Y-135223800D01*
X187121299Y-135223800D01*
X187145387Y-135228591D01*
G37*
G36*
X189435387Y-135228591D02*
G01*
X189580578Y-135257471D01*
X189740037Y-135323521D01*
X189883545Y-135419411D01*
X190005589Y-135541455D01*
X190101479Y-135684963D01*
X190167529Y-135844422D01*
X190201200Y-136013702D01*
X190201200Y-136186298D01*
X190167529Y-136355578D01*
X190101479Y-136515037D01*
X190005589Y-136658545D01*
X189883545Y-136780589D01*
X189740037Y-136876479D01*
X189580578Y-136942529D01*
X189435387Y-136971409D01*
X189411299Y-136976200D01*
X189238701Y-136976200D01*
X189214613Y-136971409D01*
X189069422Y-136942529D01*
X188909963Y-136876479D01*
X188766455Y-136780589D01*
X188644411Y-136658545D01*
X188548521Y-136515037D01*
X188482471Y-136355578D01*
X188448800Y-136186298D01*
X188448800Y-136013702D01*
X188482471Y-135844422D01*
X188548521Y-135684963D01*
X188644411Y-135541455D01*
X188766455Y-135419411D01*
X188909963Y-135323521D01*
X189069422Y-135257471D01*
X189214613Y-135228591D01*
X189238701Y-135223800D01*
X189411299Y-135223800D01*
X189435387Y-135228591D01*
G37*
G36*
X122030387Y-126255591D02*
G01*
X122175578Y-126284471D01*
X122335037Y-126350521D01*
X122478545Y-126446411D01*
X122600589Y-126568455D01*
X122696479Y-126711963D01*
X122762529Y-126871422D01*
X122796200Y-127040702D01*
X122796200Y-127213298D01*
X122762529Y-127382578D01*
X122696479Y-127542037D01*
X122600589Y-127685545D01*
X122478545Y-127807589D01*
X122335037Y-127903479D01*
X122175578Y-127969529D01*
X122030387Y-127998409D01*
X122006299Y-128003200D01*
X121833701Y-128003200D01*
X121809613Y-127998409D01*
X121664422Y-127969529D01*
X121504963Y-127903479D01*
X121361455Y-127807589D01*
X121239411Y-127685545D01*
X121143521Y-127542037D01*
X121077471Y-127382578D01*
X121043800Y-127213298D01*
X121043800Y-127040702D01*
X121077471Y-126871422D01*
X121143521Y-126711963D01*
X121239411Y-126568455D01*
X121361455Y-126446411D01*
X121504963Y-126350521D01*
X121664422Y-126284471D01*
X121809613Y-126255591D01*
X121833701Y-126250800D01*
X122006299Y-126250800D01*
X122030387Y-126255591D01*
G37*
G36*
X119490387Y-126255591D02*
G01*
X119635578Y-126284471D01*
X119795037Y-126350521D01*
X119938545Y-126446411D01*
X120060589Y-126568455D01*
X120156479Y-126711963D01*
X120222529Y-126871422D01*
X120256200Y-127040702D01*
X120256200Y-127213298D01*
X120222529Y-127382578D01*
X120156479Y-127542037D01*
X120060589Y-127685545D01*
X119938545Y-127807589D01*
X119795037Y-127903479D01*
X119635578Y-127969529D01*
X119490387Y-127998409D01*
X119466299Y-128003200D01*
X119293701Y-128003200D01*
X119269613Y-127998409D01*
X119124422Y-127969529D01*
X118964963Y-127903479D01*
X118821455Y-127807589D01*
X118699411Y-127685545D01*
X118603521Y-127542037D01*
X118537471Y-127382578D01*
X118503800Y-127213298D01*
X118503800Y-127040702D01*
X118537471Y-126871422D01*
X118603521Y-126711963D01*
X118699411Y-126568455D01*
X118821455Y-126446411D01*
X118964963Y-126350521D01*
X119124422Y-126284471D01*
X119269613Y-126255591D01*
X119293701Y-126250800D01*
X119466299Y-126250800D01*
X119490387Y-126255591D01*
G37*
G36*
X116950387Y-126255591D02*
G01*
X117095578Y-126284471D01*
X117255037Y-126350521D01*
X117398545Y-126446411D01*
X117520589Y-126568455D01*
X117616479Y-126711963D01*
X117682529Y-126871422D01*
X117716200Y-127040702D01*
X117716200Y-127213298D01*
X117682529Y-127382578D01*
X117616479Y-127542037D01*
X117520589Y-127685545D01*
X117398545Y-127807589D01*
X117255037Y-127903479D01*
X117095578Y-127969529D01*
X116950387Y-127998409D01*
X116926299Y-128003200D01*
X116753701Y-128003200D01*
X116729613Y-127998409D01*
X116584422Y-127969529D01*
X116424963Y-127903479D01*
X116281455Y-127807589D01*
X116159411Y-127685545D01*
X116063521Y-127542037D01*
X115997471Y-127382578D01*
X115963800Y-127213298D01*
X115963800Y-127040702D01*
X115997471Y-126871422D01*
X116063521Y-126711963D01*
X116159411Y-126568455D01*
X116281455Y-126446411D01*
X116424963Y-126350521D01*
X116584422Y-126284471D01*
X116729613Y-126255591D01*
X116753701Y-126250800D01*
X116926299Y-126250800D01*
X116950387Y-126255591D01*
G37*
G36*
X114410387Y-126255591D02*
G01*
X114555578Y-126284471D01*
X114715037Y-126350521D01*
X114858545Y-126446411D01*
X114980589Y-126568455D01*
X115076479Y-126711963D01*
X115142529Y-126871422D01*
X115176200Y-127040702D01*
X115176200Y-127213298D01*
X115142529Y-127382578D01*
X115076479Y-127542037D01*
X114980589Y-127685545D01*
X114858545Y-127807589D01*
X114715037Y-127903479D01*
X114555578Y-127969529D01*
X114410387Y-127998409D01*
X114386299Y-128003200D01*
X114213701Y-128003200D01*
X114189613Y-127998409D01*
X114044422Y-127969529D01*
X113884963Y-127903479D01*
X113741455Y-127807589D01*
X113619411Y-127685545D01*
X113523521Y-127542037D01*
X113457471Y-127382578D01*
X113423800Y-127213298D01*
X113423800Y-127040702D01*
X113457471Y-126871422D01*
X113523521Y-126711963D01*
X113619411Y-126568455D01*
X113741455Y-126446411D01*
X113884963Y-126350521D01*
X114044422Y-126284471D01*
X114189613Y-126255591D01*
X114213701Y-126250800D01*
X114386299Y-126250800D01*
X114410387Y-126255591D01*
G37*
G36*
X111870387Y-126255591D02*
G01*
X112015578Y-126284471D01*
X112175037Y-126350521D01*
X112318545Y-126446411D01*
X112440589Y-126568455D01*
X112536479Y-126711963D01*
X112602529Y-126871422D01*
X112636200Y-127040702D01*
X112636200Y-127213298D01*
X112602529Y-127382578D01*
X112536479Y-127542037D01*
X112440589Y-127685545D01*
X112318545Y-127807589D01*
X112175037Y-127903479D01*
X112015578Y-127969529D01*
X111870387Y-127998409D01*
X111846299Y-128003200D01*
X111673701Y-128003200D01*
X111649613Y-127998409D01*
X111504422Y-127969529D01*
X111344963Y-127903479D01*
X111201455Y-127807589D01*
X111079411Y-127685545D01*
X110983521Y-127542037D01*
X110917471Y-127382578D01*
X110883800Y-127213298D01*
X110883800Y-127040702D01*
X110917471Y-126871422D01*
X110983521Y-126711963D01*
X111079411Y-126568455D01*
X111201455Y-126446411D01*
X111344963Y-126350521D01*
X111504422Y-126284471D01*
X111649613Y-126255591D01*
X111673701Y-126250800D01*
X111846299Y-126250800D01*
X111870387Y-126255591D01*
G37*
G36*
X109330387Y-126255591D02*
G01*
X109475578Y-126284471D01*
X109635037Y-126350521D01*
X109778545Y-126446411D01*
X109900589Y-126568455D01*
X109996479Y-126711963D01*
X110062529Y-126871422D01*
X110096200Y-127040702D01*
X110096200Y-127213298D01*
X110062529Y-127382578D01*
X109996479Y-127542037D01*
X109900589Y-127685545D01*
X109778545Y-127807589D01*
X109635037Y-127903479D01*
X109475578Y-127969529D01*
X109330387Y-127998409D01*
X109306299Y-128003200D01*
X109133701Y-128003200D01*
X109109613Y-127998409D01*
X108964422Y-127969529D01*
X108804963Y-127903479D01*
X108661455Y-127807589D01*
X108539411Y-127685545D01*
X108443521Y-127542037D01*
X108377471Y-127382578D01*
X108343800Y-127213298D01*
X108343800Y-127040702D01*
X108377471Y-126871422D01*
X108443521Y-126711963D01*
X108539411Y-126568455D01*
X108661455Y-126446411D01*
X108804963Y-126350521D01*
X108964422Y-126284471D01*
X109109613Y-126255591D01*
X109133701Y-126250800D01*
X109306299Y-126250800D01*
X109330387Y-126255591D01*
G37*
G36*
X106790387Y-126255591D02*
G01*
X106935578Y-126284471D01*
X107095037Y-126350521D01*
X107238545Y-126446411D01*
X107360589Y-126568455D01*
X107456479Y-126711963D01*
X107522529Y-126871422D01*
X107556200Y-127040702D01*
X107556200Y-127213298D01*
X107522529Y-127382578D01*
X107456479Y-127542037D01*
X107360589Y-127685545D01*
X107238545Y-127807589D01*
X107095037Y-127903479D01*
X106935578Y-127969529D01*
X106790387Y-127998409D01*
X106766299Y-128003200D01*
X106593701Y-128003200D01*
X106569613Y-127998409D01*
X106424422Y-127969529D01*
X106264963Y-127903479D01*
X106121455Y-127807589D01*
X105999411Y-127685545D01*
X105903521Y-127542037D01*
X105837471Y-127382578D01*
X105803800Y-127213298D01*
X105803800Y-127040702D01*
X105837471Y-126871422D01*
X105903521Y-126711963D01*
X105999411Y-126568455D01*
X106121455Y-126446411D01*
X106264963Y-126350521D01*
X106424422Y-126284471D01*
X106569613Y-126255591D01*
X106593701Y-126250800D01*
X106766299Y-126250800D01*
X106790387Y-126255591D01*
G37*
G36*
X104250387Y-126255591D02*
G01*
X104395578Y-126284471D01*
X104555037Y-126350521D01*
X104698545Y-126446411D01*
X104820589Y-126568455D01*
X104916479Y-126711963D01*
X104982529Y-126871422D01*
X105016200Y-127040702D01*
X105016200Y-127213298D01*
X104982529Y-127382578D01*
X104916479Y-127542037D01*
X104820589Y-127685545D01*
X104698545Y-127807589D01*
X104555037Y-127903479D01*
X104395578Y-127969529D01*
X104250387Y-127998409D01*
X104226299Y-128003200D01*
X104053701Y-128003200D01*
X104029613Y-127998409D01*
X103884422Y-127969529D01*
X103724963Y-127903479D01*
X103581455Y-127807589D01*
X103459411Y-127685545D01*
X103363521Y-127542037D01*
X103297471Y-127382578D01*
X103263800Y-127213298D01*
X103263800Y-127040702D01*
X103297471Y-126871422D01*
X103363521Y-126711963D01*
X103459411Y-126568455D01*
X103581455Y-126446411D01*
X103724963Y-126350521D01*
X103884422Y-126284471D01*
X104029613Y-126255591D01*
X104053701Y-126250800D01*
X104226299Y-126250800D01*
X104250387Y-126255591D01*
G37*
G36*
X101710387Y-126255591D02*
G01*
X101855578Y-126284471D01*
X102015037Y-126350521D01*
X102158545Y-126446411D01*
X102280589Y-126568455D01*
X102376479Y-126711963D01*
X102442529Y-126871422D01*
X102476200Y-127040702D01*
X102476200Y-127213298D01*
X102442529Y-127382578D01*
X102376479Y-127542037D01*
X102280589Y-127685545D01*
X102158545Y-127807589D01*
X102015037Y-127903479D01*
X101855578Y-127969529D01*
X101710387Y-127998409D01*
X101686299Y-128003200D01*
X101513701Y-128003200D01*
X101489613Y-127998409D01*
X101344422Y-127969529D01*
X101184963Y-127903479D01*
X101041455Y-127807589D01*
X100919411Y-127685545D01*
X100823521Y-127542037D01*
X100757471Y-127382578D01*
X100723800Y-127213298D01*
X100723800Y-127040702D01*
X100757471Y-126871422D01*
X100823521Y-126711963D01*
X100919411Y-126568455D01*
X101041455Y-126446411D01*
X101184963Y-126350521D01*
X101344422Y-126284471D01*
X101489613Y-126255591D01*
X101513701Y-126250800D01*
X101686299Y-126250800D01*
X101710387Y-126255591D01*
G37*
G36*
X99170387Y-126255591D02*
G01*
X99315578Y-126284471D01*
X99475037Y-126350521D01*
X99618545Y-126446411D01*
X99740589Y-126568455D01*
X99836479Y-126711963D01*
X99902529Y-126871422D01*
X99936200Y-127040702D01*
X99936200Y-127213298D01*
X99902529Y-127382578D01*
X99836479Y-127542037D01*
X99740589Y-127685545D01*
X99618545Y-127807589D01*
X99475037Y-127903479D01*
X99315578Y-127969529D01*
X99170387Y-127998409D01*
X99146299Y-128003200D01*
X98973701Y-128003200D01*
X98949613Y-127998409D01*
X98804422Y-127969529D01*
X98644963Y-127903479D01*
X98501455Y-127807589D01*
X98379411Y-127685545D01*
X98283521Y-127542037D01*
X98217471Y-127382578D01*
X98183800Y-127213298D01*
X98183800Y-127040702D01*
X98217471Y-126871422D01*
X98283521Y-126711963D01*
X98379411Y-126568455D01*
X98501455Y-126446411D01*
X98644963Y-126350521D01*
X98804422Y-126284471D01*
X98949613Y-126255591D01*
X98973701Y-126250800D01*
X99146299Y-126250800D01*
X99170387Y-126255591D01*
G37*
G36*
X96630387Y-126255591D02*
G01*
X96775578Y-126284471D01*
X96935037Y-126350521D01*
X97078545Y-126446411D01*
X97200589Y-126568455D01*
X97296479Y-126711963D01*
X97362529Y-126871422D01*
X97396200Y-127040702D01*
X97396200Y-127213298D01*
X97362529Y-127382578D01*
X97296479Y-127542037D01*
X97200589Y-127685545D01*
X97078545Y-127807589D01*
X96935037Y-127903479D01*
X96775578Y-127969529D01*
X96630387Y-127998409D01*
X96606299Y-128003200D01*
X96433701Y-128003200D01*
X96409613Y-127998409D01*
X96264422Y-127969529D01*
X96104963Y-127903479D01*
X95961455Y-127807589D01*
X95839411Y-127685545D01*
X95743521Y-127542037D01*
X95677471Y-127382578D01*
X95643800Y-127213298D01*
X95643800Y-127040702D01*
X95677471Y-126871422D01*
X95743521Y-126711963D01*
X95839411Y-126568455D01*
X95961455Y-126446411D01*
X96104963Y-126350521D01*
X96264422Y-126284471D01*
X96409613Y-126255591D01*
X96433701Y-126250800D01*
X96606299Y-126250800D01*
X96630387Y-126255591D01*
G37*
G36*
X94090387Y-126255591D02*
G01*
X94235578Y-126284471D01*
X94395037Y-126350521D01*
X94538545Y-126446411D01*
X94660589Y-126568455D01*
X94756479Y-126711963D01*
X94822529Y-126871422D01*
X94856200Y-127040702D01*
X94856200Y-127213298D01*
X94822529Y-127382578D01*
X94756479Y-127542037D01*
X94660589Y-127685545D01*
X94538545Y-127807589D01*
X94395037Y-127903479D01*
X94235578Y-127969529D01*
X94090387Y-127998409D01*
X94066299Y-128003200D01*
X93893701Y-128003200D01*
X93869613Y-127998409D01*
X93724422Y-127969529D01*
X93564963Y-127903479D01*
X93421455Y-127807589D01*
X93299411Y-127685545D01*
X93203521Y-127542037D01*
X93137471Y-127382578D01*
X93103800Y-127213298D01*
X93103800Y-127040702D01*
X93137471Y-126871422D01*
X93203521Y-126711963D01*
X93299411Y-126568455D01*
X93421455Y-126446411D01*
X93564963Y-126350521D01*
X93724422Y-126284471D01*
X93869613Y-126255591D01*
X93893701Y-126250800D01*
X94066299Y-126250800D01*
X94090387Y-126255591D01*
G37*
G36*
X91550387Y-126255591D02*
G01*
X91695578Y-126284471D01*
X91855037Y-126350521D01*
X91998545Y-126446411D01*
X92120589Y-126568455D01*
X92216479Y-126711963D01*
X92282529Y-126871422D01*
X92316200Y-127040702D01*
X92316200Y-127213298D01*
X92282529Y-127382578D01*
X92216479Y-127542037D01*
X92120589Y-127685545D01*
X91998545Y-127807589D01*
X91855037Y-127903479D01*
X91695578Y-127969529D01*
X91550387Y-127998409D01*
X91526299Y-128003200D01*
X91353701Y-128003200D01*
X91329613Y-127998409D01*
X91184422Y-127969529D01*
X91024963Y-127903479D01*
X90881455Y-127807589D01*
X90759411Y-127685545D01*
X90663521Y-127542037D01*
X90597471Y-127382578D01*
X90563800Y-127213298D01*
X90563800Y-127040702D01*
X90597471Y-126871422D01*
X90663521Y-126711963D01*
X90759411Y-126568455D01*
X90881455Y-126446411D01*
X91024963Y-126350521D01*
X91184422Y-126284471D01*
X91329613Y-126255591D01*
X91353701Y-126250800D01*
X91526299Y-126250800D01*
X91550387Y-126255591D01*
G37*
G36*
X89010387Y-126255591D02*
G01*
X89155578Y-126284471D01*
X89315037Y-126350521D01*
X89458545Y-126446411D01*
X89580589Y-126568455D01*
X89676479Y-126711963D01*
X89742529Y-126871422D01*
X89776200Y-127040702D01*
X89776200Y-127213298D01*
X89742529Y-127382578D01*
X89676479Y-127542037D01*
X89580589Y-127685545D01*
X89458545Y-127807589D01*
X89315037Y-127903479D01*
X89155578Y-127969529D01*
X89010387Y-127998409D01*
X88986299Y-128003200D01*
X88813701Y-128003200D01*
X88789613Y-127998409D01*
X88644422Y-127969529D01*
X88484963Y-127903479D01*
X88341455Y-127807589D01*
X88219411Y-127685545D01*
X88123521Y-127542037D01*
X88057471Y-127382578D01*
X88023800Y-127213298D01*
X88023800Y-127040702D01*
X88057471Y-126871422D01*
X88123521Y-126711963D01*
X88219411Y-126568455D01*
X88341455Y-126446411D01*
X88484963Y-126350521D01*
X88644422Y-126284471D01*
X88789613Y-126255591D01*
X88813701Y-126250800D01*
X88986299Y-126250800D01*
X89010387Y-126255591D01*
G37*
G36*
X87236200Y-128003200D02*
G01*
X85483800Y-128003200D01*
X85483800Y-126250800D01*
X87236200Y-126250800D01*
X87236200Y-128003200D01*
G37*
G36*
X124570387Y-126255591D02*
G01*
X124715578Y-126284471D01*
X124875037Y-126350521D01*
X125018545Y-126446411D01*
X125140589Y-126568455D01*
X125236479Y-126711963D01*
X125302529Y-126871422D01*
X125336200Y-127040702D01*
X125336200Y-127213298D01*
X125302529Y-127382578D01*
X125236479Y-127542037D01*
X125140589Y-127685545D01*
X125018545Y-127807589D01*
X124875037Y-127903479D01*
X124715578Y-127969529D01*
X124570387Y-127998409D01*
X124546299Y-128003200D01*
X124373701Y-128003200D01*
X124349613Y-127998409D01*
X124204422Y-127969529D01*
X124044963Y-127903479D01*
X123901455Y-127807589D01*
X123779411Y-127685545D01*
X123683521Y-127542037D01*
X123617471Y-127382578D01*
X123583800Y-127213298D01*
X123583800Y-127040702D01*
X123617471Y-126871422D01*
X123683521Y-126711963D01*
X123779411Y-126568455D01*
X123901455Y-126446411D01*
X124044963Y-126350521D01*
X124204422Y-126284471D01*
X124349613Y-126255591D01*
X124373701Y-126250800D01*
X124546299Y-126250800D01*
X124570387Y-126255591D01*
G37*
G36*
X127110387Y-126255591D02*
G01*
X127255578Y-126284471D01*
X127415037Y-126350521D01*
X127558545Y-126446411D01*
X127680589Y-126568455D01*
X127776479Y-126711963D01*
X127842529Y-126871422D01*
X127876200Y-127040702D01*
X127876200Y-127213298D01*
X127842529Y-127382578D01*
X127776479Y-127542037D01*
X127680589Y-127685545D01*
X127558545Y-127807589D01*
X127415037Y-127903479D01*
X127255578Y-127969529D01*
X127110387Y-127998409D01*
X127086299Y-128003200D01*
X126913701Y-128003200D01*
X126889613Y-127998409D01*
X126744422Y-127969529D01*
X126584963Y-127903479D01*
X126441455Y-127807589D01*
X126319411Y-127685545D01*
X126223521Y-127542037D01*
X126157471Y-127382578D01*
X126123800Y-127213298D01*
X126123800Y-127040702D01*
X126157471Y-126871422D01*
X126223521Y-126711963D01*
X126319411Y-126568455D01*
X126441455Y-126446411D01*
X126584963Y-126350521D01*
X126744422Y-126284471D01*
X126889613Y-126255591D01*
X126913701Y-126250800D01*
X127086299Y-126250800D01*
X127110387Y-126255591D01*
G37*
G36*
X129650387Y-126255591D02*
G01*
X129795578Y-126284471D01*
X129955037Y-126350521D01*
X130098545Y-126446411D01*
X130220589Y-126568455D01*
X130316479Y-126711963D01*
X130382529Y-126871422D01*
X130416200Y-127040702D01*
X130416200Y-127213298D01*
X130382529Y-127382578D01*
X130316479Y-127542037D01*
X130220589Y-127685545D01*
X130098545Y-127807589D01*
X129955037Y-127903479D01*
X129795578Y-127969529D01*
X129650387Y-127998409D01*
X129626299Y-128003200D01*
X129453701Y-128003200D01*
X129429613Y-127998409D01*
X129284422Y-127969529D01*
X129124963Y-127903479D01*
X128981455Y-127807589D01*
X128859411Y-127685545D01*
X128763521Y-127542037D01*
X128697471Y-127382578D01*
X128663800Y-127213298D01*
X128663800Y-127040702D01*
X128697471Y-126871422D01*
X128763521Y-126711963D01*
X128859411Y-126568455D01*
X128981455Y-126446411D01*
X129124963Y-126350521D01*
X129284422Y-126284471D01*
X129429613Y-126255591D01*
X129453701Y-126250800D01*
X129626299Y-126250800D01*
X129650387Y-126255591D01*
G37*
G36*
X132190387Y-126255591D02*
G01*
X132335578Y-126284471D01*
X132495037Y-126350521D01*
X132638545Y-126446411D01*
X132760589Y-126568455D01*
X132856479Y-126711963D01*
X132922529Y-126871422D01*
X132956200Y-127040702D01*
X132956200Y-127213298D01*
X132922529Y-127382578D01*
X132856479Y-127542037D01*
X132760589Y-127685545D01*
X132638545Y-127807589D01*
X132495037Y-127903479D01*
X132335578Y-127969529D01*
X132190387Y-127998409D01*
X132166299Y-128003200D01*
X131993701Y-128003200D01*
X131969613Y-127998409D01*
X131824422Y-127969529D01*
X131664963Y-127903479D01*
X131521455Y-127807589D01*
X131399411Y-127685545D01*
X131303521Y-127542037D01*
X131237471Y-127382578D01*
X131203800Y-127213298D01*
X131203800Y-127040702D01*
X131237471Y-126871422D01*
X131303521Y-126711963D01*
X131399411Y-126568455D01*
X131521455Y-126446411D01*
X131664963Y-126350521D01*
X131824422Y-126284471D01*
X131969613Y-126255591D01*
X131993701Y-126250800D01*
X132166299Y-126250800D01*
X132190387Y-126255591D01*
G37*
G36*
X134730387Y-126255591D02*
G01*
X134875578Y-126284471D01*
X135035037Y-126350521D01*
X135178545Y-126446411D01*
X135300589Y-126568455D01*
X135396479Y-126711963D01*
X135462529Y-126871422D01*
X135496200Y-127040702D01*
X135496200Y-127213298D01*
X135462529Y-127382578D01*
X135396479Y-127542037D01*
X135300589Y-127685545D01*
X135178545Y-127807589D01*
X135035037Y-127903479D01*
X134875578Y-127969529D01*
X134730387Y-127998409D01*
X134706299Y-128003200D01*
X134533701Y-128003200D01*
X134509613Y-127998409D01*
X134364422Y-127969529D01*
X134204963Y-127903479D01*
X134061455Y-127807589D01*
X133939411Y-127685545D01*
X133843521Y-127542037D01*
X133777471Y-127382578D01*
X133743800Y-127213298D01*
X133743800Y-127040702D01*
X133777471Y-126871422D01*
X133843521Y-126711963D01*
X133939411Y-126568455D01*
X134061455Y-126446411D01*
X134204963Y-126350521D01*
X134364422Y-126284471D01*
X134509613Y-126255591D01*
X134533701Y-126250800D01*
X134706299Y-126250800D01*
X134730387Y-126255591D01*
G37*
G36*
X137270387Y-126255591D02*
G01*
X137415578Y-126284471D01*
X137575037Y-126350521D01*
X137718545Y-126446411D01*
X137840589Y-126568455D01*
X137936479Y-126711963D01*
X138002529Y-126871422D01*
X138036200Y-127040702D01*
X138036200Y-127213298D01*
X138002529Y-127382578D01*
X137936479Y-127542037D01*
X137840589Y-127685545D01*
X137718545Y-127807589D01*
X137575037Y-127903479D01*
X137415578Y-127969529D01*
X137270387Y-127998409D01*
X137246299Y-128003200D01*
X137073701Y-128003200D01*
X137049613Y-127998409D01*
X136904422Y-127969529D01*
X136744963Y-127903479D01*
X136601455Y-127807589D01*
X136479411Y-127685545D01*
X136383521Y-127542037D01*
X136317471Y-127382578D01*
X136283800Y-127213298D01*
X136283800Y-127040702D01*
X136317471Y-126871422D01*
X136383521Y-126711963D01*
X136479411Y-126568455D01*
X136601455Y-126446411D01*
X136744963Y-126350521D01*
X136904422Y-126284471D01*
X137049613Y-126255591D01*
X137073701Y-126250800D01*
X137246299Y-126250800D01*
X137270387Y-126255591D01*
G37*
G36*
X139810387Y-126255591D02*
G01*
X139955578Y-126284471D01*
X140115037Y-126350521D01*
X140258545Y-126446411D01*
X140380589Y-126568455D01*
X140476479Y-126711963D01*
X140542529Y-126871422D01*
X140576200Y-127040702D01*
X140576200Y-127213298D01*
X140542529Y-127382578D01*
X140476479Y-127542037D01*
X140380589Y-127685545D01*
X140258545Y-127807589D01*
X140115037Y-127903479D01*
X139955578Y-127969529D01*
X139810387Y-127998409D01*
X139786299Y-128003200D01*
X139613701Y-128003200D01*
X139589613Y-127998409D01*
X139444422Y-127969529D01*
X139284963Y-127903479D01*
X139141455Y-127807589D01*
X139019411Y-127685545D01*
X138923521Y-127542037D01*
X138857471Y-127382578D01*
X138823800Y-127213298D01*
X138823800Y-127040702D01*
X138857471Y-126871422D01*
X138923521Y-126711963D01*
X139019411Y-126568455D01*
X139141455Y-126446411D01*
X139284963Y-126350521D01*
X139444422Y-126284471D01*
X139589613Y-126255591D01*
X139613701Y-126250800D01*
X139786299Y-126250800D01*
X139810387Y-126255591D01*
G37*
G36*
X142350387Y-126255591D02*
G01*
X142495578Y-126284471D01*
X142655037Y-126350521D01*
X142798545Y-126446411D01*
X142920589Y-126568455D01*
X143016479Y-126711963D01*
X143082529Y-126871422D01*
X143116200Y-127040702D01*
X143116200Y-127213298D01*
X143082529Y-127382578D01*
X143016479Y-127542037D01*
X142920589Y-127685545D01*
X142798545Y-127807589D01*
X142655037Y-127903479D01*
X142495578Y-127969529D01*
X142350387Y-127998409D01*
X142326299Y-128003200D01*
X142153701Y-128003200D01*
X142129613Y-127998409D01*
X141984422Y-127969529D01*
X141824963Y-127903479D01*
X141681455Y-127807589D01*
X141559411Y-127685545D01*
X141463521Y-127542037D01*
X141397471Y-127382578D01*
X141363800Y-127213298D01*
X141363800Y-127040702D01*
X141397471Y-126871422D01*
X141463521Y-126711963D01*
X141559411Y-126568455D01*
X141681455Y-126446411D01*
X141824963Y-126350521D01*
X141984422Y-126284471D01*
X142129613Y-126255591D01*
X142153701Y-126250800D01*
X142326299Y-126250800D01*
X142350387Y-126255591D01*
G37*
G36*
X144890387Y-126255591D02*
G01*
X145035578Y-126284471D01*
X145195037Y-126350521D01*
X145338545Y-126446411D01*
X145460589Y-126568455D01*
X145556479Y-126711963D01*
X145622529Y-126871422D01*
X145656200Y-127040702D01*
X145656200Y-127213298D01*
X145622529Y-127382578D01*
X145556479Y-127542037D01*
X145460589Y-127685545D01*
X145338545Y-127807589D01*
X145195037Y-127903479D01*
X145035578Y-127969529D01*
X144890387Y-127998409D01*
X144866299Y-128003200D01*
X144693701Y-128003200D01*
X144669613Y-127998409D01*
X144524422Y-127969529D01*
X144364963Y-127903479D01*
X144221455Y-127807589D01*
X144099411Y-127685545D01*
X144003521Y-127542037D01*
X143937471Y-127382578D01*
X143903800Y-127213298D01*
X143903800Y-127040702D01*
X143937471Y-126871422D01*
X144003521Y-126711963D01*
X144099411Y-126568455D01*
X144221455Y-126446411D01*
X144364963Y-126350521D01*
X144524422Y-126284471D01*
X144669613Y-126255591D01*
X144693701Y-126250800D01*
X144866299Y-126250800D01*
X144890387Y-126255591D01*
G37*
G36*
X165210387Y-126255591D02*
G01*
X165355578Y-126284471D01*
X165515037Y-126350521D01*
X165658545Y-126446411D01*
X165780589Y-126568455D01*
X165876479Y-126711963D01*
X165942529Y-126871422D01*
X165976200Y-127040702D01*
X165976200Y-127213298D01*
X165942529Y-127382578D01*
X165876479Y-127542037D01*
X165780589Y-127685545D01*
X165658545Y-127807589D01*
X165515037Y-127903479D01*
X165355578Y-127969529D01*
X165210387Y-127998409D01*
X165186299Y-128003200D01*
X165013701Y-128003200D01*
X164989613Y-127998409D01*
X164844422Y-127969529D01*
X164684963Y-127903479D01*
X164541455Y-127807589D01*
X164419411Y-127685545D01*
X164323521Y-127542037D01*
X164257471Y-127382578D01*
X164223800Y-127213298D01*
X164223800Y-127040702D01*
X164257471Y-126871422D01*
X164323521Y-126711963D01*
X164419411Y-126568455D01*
X164541455Y-126446411D01*
X164684963Y-126350521D01*
X164844422Y-126284471D01*
X164989613Y-126255591D01*
X165013701Y-126250800D01*
X165186299Y-126250800D01*
X165210387Y-126255591D01*
G37*
G36*
X162670387Y-126255591D02*
G01*
X162815578Y-126284471D01*
X162975037Y-126350521D01*
X163118545Y-126446411D01*
X163240589Y-126568455D01*
X163336479Y-126711963D01*
X163402529Y-126871422D01*
X163436200Y-127040702D01*
X163436200Y-127213298D01*
X163402529Y-127382578D01*
X163336479Y-127542037D01*
X163240589Y-127685545D01*
X163118545Y-127807589D01*
X162975037Y-127903479D01*
X162815578Y-127969529D01*
X162670387Y-127998409D01*
X162646299Y-128003200D01*
X162473701Y-128003200D01*
X162449613Y-127998409D01*
X162304422Y-127969529D01*
X162144963Y-127903479D01*
X162001455Y-127807589D01*
X161879411Y-127685545D01*
X161783521Y-127542037D01*
X161717471Y-127382578D01*
X161683800Y-127213298D01*
X161683800Y-127040702D01*
X161717471Y-126871422D01*
X161783521Y-126711963D01*
X161879411Y-126568455D01*
X162001455Y-126446411D01*
X162144963Y-126350521D01*
X162304422Y-126284471D01*
X162449613Y-126255591D01*
X162473701Y-126250800D01*
X162646299Y-126250800D01*
X162670387Y-126255591D01*
G37*
G36*
X160130387Y-126255591D02*
G01*
X160275578Y-126284471D01*
X160435037Y-126350521D01*
X160578545Y-126446411D01*
X160700589Y-126568455D01*
X160796479Y-126711963D01*
X160862529Y-126871422D01*
X160896200Y-127040702D01*
X160896200Y-127213298D01*
X160862529Y-127382578D01*
X160796479Y-127542037D01*
X160700589Y-127685545D01*
X160578545Y-127807589D01*
X160435037Y-127903479D01*
X160275578Y-127969529D01*
X160130387Y-127998409D01*
X160106299Y-128003200D01*
X159933701Y-128003200D01*
X159909613Y-127998409D01*
X159764422Y-127969529D01*
X159604963Y-127903479D01*
X159461455Y-127807589D01*
X159339411Y-127685545D01*
X159243521Y-127542037D01*
X159177471Y-127382578D01*
X159143800Y-127213298D01*
X159143800Y-127040702D01*
X159177471Y-126871422D01*
X159243521Y-126711963D01*
X159339411Y-126568455D01*
X159461455Y-126446411D01*
X159604963Y-126350521D01*
X159764422Y-126284471D01*
X159909613Y-126255591D01*
X159933701Y-126250800D01*
X160106299Y-126250800D01*
X160130387Y-126255591D01*
G37*
G36*
X157590387Y-126255591D02*
G01*
X157735578Y-126284471D01*
X157895037Y-126350521D01*
X158038545Y-126446411D01*
X158160589Y-126568455D01*
X158256479Y-126711963D01*
X158322529Y-126871422D01*
X158356200Y-127040702D01*
X158356200Y-127213298D01*
X158322529Y-127382578D01*
X158256479Y-127542037D01*
X158160589Y-127685545D01*
X158038545Y-127807589D01*
X157895037Y-127903479D01*
X157735578Y-127969529D01*
X157590387Y-127998409D01*
X157566299Y-128003200D01*
X157393701Y-128003200D01*
X157369613Y-127998409D01*
X157224422Y-127969529D01*
X157064963Y-127903479D01*
X156921455Y-127807589D01*
X156799411Y-127685545D01*
X156703521Y-127542037D01*
X156637471Y-127382578D01*
X156603800Y-127213298D01*
X156603800Y-127040702D01*
X156637471Y-126871422D01*
X156703521Y-126711963D01*
X156799411Y-126568455D01*
X156921455Y-126446411D01*
X157064963Y-126350521D01*
X157224422Y-126284471D01*
X157369613Y-126255591D01*
X157393701Y-126250800D01*
X157566299Y-126250800D01*
X157590387Y-126255591D01*
G37*
G36*
X155050387Y-126255591D02*
G01*
X155195578Y-126284471D01*
X155355037Y-126350521D01*
X155498545Y-126446411D01*
X155620589Y-126568455D01*
X155716479Y-126711963D01*
X155782529Y-126871422D01*
X155816200Y-127040702D01*
X155816200Y-127213298D01*
X155782529Y-127382578D01*
X155716479Y-127542037D01*
X155620589Y-127685545D01*
X155498545Y-127807589D01*
X155355037Y-127903479D01*
X155195578Y-127969529D01*
X155050387Y-127998409D01*
X155026299Y-128003200D01*
X154853701Y-128003200D01*
X154829613Y-127998409D01*
X154684422Y-127969529D01*
X154524963Y-127903479D01*
X154381455Y-127807589D01*
X154259411Y-127685545D01*
X154163521Y-127542037D01*
X154097471Y-127382578D01*
X154063800Y-127213298D01*
X154063800Y-127040702D01*
X154097471Y-126871422D01*
X154163521Y-126711963D01*
X154259411Y-126568455D01*
X154381455Y-126446411D01*
X154524963Y-126350521D01*
X154684422Y-126284471D01*
X154829613Y-126255591D01*
X154853701Y-126250800D01*
X155026299Y-126250800D01*
X155050387Y-126255591D01*
G37*
G36*
X152510387Y-126255591D02*
G01*
X152655578Y-126284471D01*
X152815037Y-126350521D01*
X152958545Y-126446411D01*
X153080589Y-126568455D01*
X153176479Y-126711963D01*
X153242529Y-126871422D01*
X153276200Y-127040702D01*
X153276200Y-127213298D01*
X153242529Y-127382578D01*
X153176479Y-127542037D01*
X153080589Y-127685545D01*
X152958545Y-127807589D01*
X152815037Y-127903479D01*
X152655578Y-127969529D01*
X152510387Y-127998409D01*
X152486299Y-128003200D01*
X152313701Y-128003200D01*
X152289613Y-127998409D01*
X152144422Y-127969529D01*
X151984963Y-127903479D01*
X151841455Y-127807589D01*
X151719411Y-127685545D01*
X151623521Y-127542037D01*
X151557471Y-127382578D01*
X151523800Y-127213298D01*
X151523800Y-127040702D01*
X151557471Y-126871422D01*
X151623521Y-126711963D01*
X151719411Y-126568455D01*
X151841455Y-126446411D01*
X151984963Y-126350521D01*
X152144422Y-126284471D01*
X152289613Y-126255591D01*
X152313701Y-126250800D01*
X152486299Y-126250800D01*
X152510387Y-126255591D01*
G37*
G36*
X149970387Y-126255591D02*
G01*
X150115578Y-126284471D01*
X150275037Y-126350521D01*
X150418545Y-126446411D01*
X150540589Y-126568455D01*
X150636479Y-126711963D01*
X150702529Y-126871422D01*
X150736200Y-127040702D01*
X150736200Y-127213298D01*
X150702529Y-127382578D01*
X150636479Y-127542037D01*
X150540589Y-127685545D01*
X150418545Y-127807589D01*
X150275037Y-127903479D01*
X150115578Y-127969529D01*
X149970387Y-127998409D01*
X149946299Y-128003200D01*
X149773701Y-128003200D01*
X149749613Y-127998409D01*
X149604422Y-127969529D01*
X149444963Y-127903479D01*
X149301455Y-127807589D01*
X149179411Y-127685545D01*
X149083521Y-127542037D01*
X149017471Y-127382578D01*
X148983800Y-127213298D01*
X148983800Y-127040702D01*
X149017471Y-126871422D01*
X149083521Y-126711963D01*
X149179411Y-126568455D01*
X149301455Y-126446411D01*
X149444963Y-126350521D01*
X149604422Y-126284471D01*
X149749613Y-126255591D01*
X149773701Y-126250800D01*
X149946299Y-126250800D01*
X149970387Y-126255591D01*
G37*
G36*
X147430387Y-126255591D02*
G01*
X147575578Y-126284471D01*
X147735037Y-126350521D01*
X147878545Y-126446411D01*
X148000589Y-126568455D01*
X148096479Y-126711963D01*
X148162529Y-126871422D01*
X148196200Y-127040702D01*
X148196200Y-127213298D01*
X148162529Y-127382578D01*
X148096479Y-127542037D01*
X148000589Y-127685545D01*
X147878545Y-127807589D01*
X147735037Y-127903479D01*
X147575578Y-127969529D01*
X147430387Y-127998409D01*
X147406299Y-128003200D01*
X147233701Y-128003200D01*
X147209613Y-127998409D01*
X147064422Y-127969529D01*
X146904963Y-127903479D01*
X146761455Y-127807589D01*
X146639411Y-127685545D01*
X146543521Y-127542037D01*
X146477471Y-127382578D01*
X146443800Y-127213298D01*
X146443800Y-127040702D01*
X146477471Y-126871422D01*
X146543521Y-126711963D01*
X146639411Y-126568455D01*
X146761455Y-126446411D01*
X146904963Y-126350521D01*
X147064422Y-126284471D01*
X147209613Y-126255591D01*
X147233701Y-126250800D01*
X147406299Y-126250800D01*
X147430387Y-126255591D01*
G37*
G36*
X106790387Y-103268591D02*
G01*
X106935578Y-103297471D01*
X107095037Y-103363521D01*
X107238545Y-103459411D01*
X107360589Y-103581455D01*
X107456479Y-103724963D01*
X107522529Y-103884422D01*
X107556200Y-104053702D01*
X107556200Y-104226298D01*
X107522529Y-104395578D01*
X107456479Y-104555037D01*
X107360589Y-104698545D01*
X107238545Y-104820589D01*
X107095037Y-104916479D01*
X106935578Y-104982529D01*
X106790387Y-105011409D01*
X106766299Y-105016200D01*
X106593701Y-105016200D01*
X106569613Y-105011409D01*
X106424422Y-104982529D01*
X106264963Y-104916479D01*
X106121455Y-104820589D01*
X105999411Y-104698545D01*
X105903521Y-104555037D01*
X105837471Y-104395578D01*
X105803800Y-104226298D01*
X105803800Y-104053702D01*
X105837471Y-103884422D01*
X105903521Y-103724963D01*
X105999411Y-103581455D01*
X106121455Y-103459411D01*
X106264963Y-103363521D01*
X106424422Y-103297471D01*
X106569613Y-103268591D01*
X106593701Y-103263800D01*
X106766299Y-103263800D01*
X106790387Y-103268591D01*
G37*
G36*
X109330387Y-103268591D02*
G01*
X109475578Y-103297471D01*
X109635037Y-103363521D01*
X109778545Y-103459411D01*
X109900589Y-103581455D01*
X109996479Y-103724963D01*
X110062529Y-103884422D01*
X110096200Y-104053702D01*
X110096200Y-104226298D01*
X110062529Y-104395578D01*
X109996479Y-104555037D01*
X109900589Y-104698545D01*
X109778545Y-104820589D01*
X109635037Y-104916479D01*
X109475578Y-104982529D01*
X109330387Y-105011409D01*
X109306299Y-105016200D01*
X109133701Y-105016200D01*
X109109613Y-105011409D01*
X108964422Y-104982529D01*
X108804963Y-104916479D01*
X108661455Y-104820589D01*
X108539411Y-104698545D01*
X108443521Y-104555037D01*
X108377471Y-104395578D01*
X108343800Y-104226298D01*
X108343800Y-104053702D01*
X108377471Y-103884422D01*
X108443521Y-103724963D01*
X108539411Y-103581455D01*
X108661455Y-103459411D01*
X108804963Y-103363521D01*
X108964422Y-103297471D01*
X109109613Y-103268591D01*
X109133701Y-103263800D01*
X109306299Y-103263800D01*
X109330387Y-103268591D01*
G37*
G36*
X104250387Y-103268591D02*
G01*
X104395578Y-103297471D01*
X104555037Y-103363521D01*
X104698545Y-103459411D01*
X104820589Y-103581455D01*
X104916479Y-103724963D01*
X104982529Y-103884422D01*
X105016200Y-104053702D01*
X105016200Y-104226298D01*
X104982529Y-104395578D01*
X104916479Y-104555037D01*
X104820589Y-104698545D01*
X104698545Y-104820589D01*
X104555037Y-104916479D01*
X104395578Y-104982529D01*
X104250387Y-105011409D01*
X104226299Y-105016200D01*
X104053701Y-105016200D01*
X104029613Y-105011409D01*
X103884422Y-104982529D01*
X103724963Y-104916479D01*
X103581455Y-104820589D01*
X103459411Y-104698545D01*
X103363521Y-104555037D01*
X103297471Y-104395578D01*
X103263800Y-104226298D01*
X103263800Y-104053702D01*
X103297471Y-103884422D01*
X103363521Y-103724963D01*
X103459411Y-103581455D01*
X103581455Y-103459411D01*
X103724963Y-103363521D01*
X103884422Y-103297471D01*
X104029613Y-103268591D01*
X104053701Y-103263800D01*
X104226299Y-103263800D01*
X104250387Y-103268591D01*
G37*
G36*
X111870387Y-103268591D02*
G01*
X112015578Y-103297471D01*
X112175037Y-103363521D01*
X112318545Y-103459411D01*
X112440589Y-103581455D01*
X112536479Y-103724963D01*
X112602529Y-103884422D01*
X112636200Y-104053702D01*
X112636200Y-104226298D01*
X112602529Y-104395578D01*
X112536479Y-104555037D01*
X112440589Y-104698545D01*
X112318545Y-104820589D01*
X112175037Y-104916479D01*
X112015578Y-104982529D01*
X111870387Y-105011409D01*
X111846299Y-105016200D01*
X111673701Y-105016200D01*
X111649613Y-105011409D01*
X111504422Y-104982529D01*
X111344963Y-104916479D01*
X111201455Y-104820589D01*
X111079411Y-104698545D01*
X110983521Y-104555037D01*
X110917471Y-104395578D01*
X110883800Y-104226298D01*
X110883800Y-104053702D01*
X110917471Y-103884422D01*
X110983521Y-103724963D01*
X111079411Y-103581455D01*
X111201455Y-103459411D01*
X111344963Y-103363521D01*
X111504422Y-103297471D01*
X111649613Y-103268591D01*
X111673701Y-103263800D01*
X111846299Y-103263800D01*
X111870387Y-103268591D01*
G37*
G36*
X101710387Y-103268591D02*
G01*
X101855578Y-103297471D01*
X102015037Y-103363521D01*
X102158545Y-103459411D01*
X102280589Y-103581455D01*
X102376479Y-103724963D01*
X102442529Y-103884422D01*
X102476200Y-104053702D01*
X102476200Y-104226298D01*
X102442529Y-104395578D01*
X102376479Y-104555037D01*
X102280589Y-104698545D01*
X102158545Y-104820589D01*
X102015037Y-104916479D01*
X101855578Y-104982529D01*
X101710387Y-105011409D01*
X101686299Y-105016200D01*
X101513701Y-105016200D01*
X101489613Y-105011409D01*
X101344422Y-104982529D01*
X101184963Y-104916479D01*
X101041455Y-104820589D01*
X100919411Y-104698545D01*
X100823521Y-104555037D01*
X100757471Y-104395578D01*
X100723800Y-104226298D01*
X100723800Y-104053702D01*
X100757471Y-103884422D01*
X100823521Y-103724963D01*
X100919411Y-103581455D01*
X101041455Y-103459411D01*
X101184963Y-103363521D01*
X101344422Y-103297471D01*
X101489613Y-103268591D01*
X101513701Y-103263800D01*
X101686299Y-103263800D01*
X101710387Y-103268591D01*
G37*
G36*
X114410387Y-103268591D02*
G01*
X114555578Y-103297471D01*
X114715037Y-103363521D01*
X114858545Y-103459411D01*
X114980589Y-103581455D01*
X115076479Y-103724963D01*
X115142529Y-103884422D01*
X115176200Y-104053702D01*
X115176200Y-104226298D01*
X115142529Y-104395578D01*
X115076479Y-104555037D01*
X114980589Y-104698545D01*
X114858545Y-104820589D01*
X114715037Y-104916479D01*
X114555578Y-104982529D01*
X114410387Y-105011409D01*
X114386299Y-105016200D01*
X114213701Y-105016200D01*
X114189613Y-105011409D01*
X114044422Y-104982529D01*
X113884963Y-104916479D01*
X113741455Y-104820589D01*
X113619411Y-104698545D01*
X113523521Y-104555037D01*
X113457471Y-104395578D01*
X113423800Y-104226298D01*
X113423800Y-104053702D01*
X113457471Y-103884422D01*
X113523521Y-103724963D01*
X113619411Y-103581455D01*
X113741455Y-103459411D01*
X113884963Y-103363521D01*
X114044422Y-103297471D01*
X114189613Y-103268591D01*
X114213701Y-103263800D01*
X114386299Y-103263800D01*
X114410387Y-103268591D01*
G37*
G36*
X99170387Y-103268591D02*
G01*
X99315578Y-103297471D01*
X99475037Y-103363521D01*
X99618545Y-103459411D01*
X99740589Y-103581455D01*
X99836479Y-103724963D01*
X99902529Y-103884422D01*
X99936200Y-104053702D01*
X99936200Y-104226298D01*
X99902529Y-104395578D01*
X99836479Y-104555037D01*
X99740589Y-104698545D01*
X99618545Y-104820589D01*
X99475037Y-104916479D01*
X99315578Y-104982529D01*
X99170387Y-105011409D01*
X99146299Y-105016200D01*
X98973701Y-105016200D01*
X98949613Y-105011409D01*
X98804422Y-104982529D01*
X98644963Y-104916479D01*
X98501455Y-104820589D01*
X98379411Y-104698545D01*
X98283521Y-104555037D01*
X98217471Y-104395578D01*
X98183800Y-104226298D01*
X98183800Y-104053702D01*
X98217471Y-103884422D01*
X98283521Y-103724963D01*
X98379411Y-103581455D01*
X98501455Y-103459411D01*
X98644963Y-103363521D01*
X98804422Y-103297471D01*
X98949613Y-103268591D01*
X98973701Y-103263800D01*
X99146299Y-103263800D01*
X99170387Y-103268591D01*
G37*
G36*
X116950387Y-103268591D02*
G01*
X117095578Y-103297471D01*
X117255037Y-103363521D01*
X117398545Y-103459411D01*
X117520589Y-103581455D01*
X117616479Y-103724963D01*
X117682529Y-103884422D01*
X117716200Y-104053702D01*
X117716200Y-104226298D01*
X117682529Y-104395578D01*
X117616479Y-104555037D01*
X117520589Y-104698545D01*
X117398545Y-104820589D01*
X117255037Y-104916479D01*
X117095578Y-104982529D01*
X116950387Y-105011409D01*
X116926299Y-105016200D01*
X116753701Y-105016200D01*
X116729613Y-105011409D01*
X116584422Y-104982529D01*
X116424963Y-104916479D01*
X116281455Y-104820589D01*
X116159411Y-104698545D01*
X116063521Y-104555037D01*
X115997471Y-104395578D01*
X115963800Y-104226298D01*
X115963800Y-104053702D01*
X115997471Y-103884422D01*
X116063521Y-103724963D01*
X116159411Y-103581455D01*
X116281455Y-103459411D01*
X116424963Y-103363521D01*
X116584422Y-103297471D01*
X116729613Y-103268591D01*
X116753701Y-103263800D01*
X116926299Y-103263800D01*
X116950387Y-103268591D01*
G37*
G36*
X96630387Y-103268591D02*
G01*
X96775578Y-103297471D01*
X96935037Y-103363521D01*
X97078545Y-103459411D01*
X97200589Y-103581455D01*
X97296479Y-103724963D01*
X97362529Y-103884422D01*
X97396200Y-104053702D01*
X97396200Y-104226298D01*
X97362529Y-104395578D01*
X97296479Y-104555037D01*
X97200589Y-104698545D01*
X97078545Y-104820589D01*
X96935037Y-104916479D01*
X96775578Y-104982529D01*
X96630387Y-105011409D01*
X96606299Y-105016200D01*
X96433701Y-105016200D01*
X96409613Y-105011409D01*
X96264422Y-104982529D01*
X96104963Y-104916479D01*
X95961455Y-104820589D01*
X95839411Y-104698545D01*
X95743521Y-104555037D01*
X95677471Y-104395578D01*
X95643800Y-104226298D01*
X95643800Y-104053702D01*
X95677471Y-103884422D01*
X95743521Y-103724963D01*
X95839411Y-103581455D01*
X95961455Y-103459411D01*
X96104963Y-103363521D01*
X96264422Y-103297471D01*
X96409613Y-103268591D01*
X96433701Y-103263800D01*
X96606299Y-103263800D01*
X96630387Y-103268591D01*
G37*
G36*
X119490387Y-103268591D02*
G01*
X119635578Y-103297471D01*
X119795037Y-103363521D01*
X119938545Y-103459411D01*
X120060589Y-103581455D01*
X120156479Y-103724963D01*
X120222529Y-103884422D01*
X120256200Y-104053702D01*
X120256200Y-104226298D01*
X120222529Y-104395578D01*
X120156479Y-104555037D01*
X120060589Y-104698545D01*
X119938545Y-104820589D01*
X119795037Y-104916479D01*
X119635578Y-104982529D01*
X119490387Y-105011409D01*
X119466299Y-105016200D01*
X119293701Y-105016200D01*
X119269613Y-105011409D01*
X119124422Y-104982529D01*
X118964963Y-104916479D01*
X118821455Y-104820589D01*
X118699411Y-104698545D01*
X118603521Y-104555037D01*
X118537471Y-104395578D01*
X118503800Y-104226298D01*
X118503800Y-104053702D01*
X118537471Y-103884422D01*
X118603521Y-103724963D01*
X118699411Y-103581455D01*
X118821455Y-103459411D01*
X118964963Y-103363521D01*
X119124422Y-103297471D01*
X119269613Y-103268591D01*
X119293701Y-103263800D01*
X119466299Y-103263800D01*
X119490387Y-103268591D01*
G37*
G36*
X94090387Y-103268591D02*
G01*
X94235578Y-103297471D01*
X94395037Y-103363521D01*
X94538545Y-103459411D01*
X94660589Y-103581455D01*
X94756479Y-103724963D01*
X94822529Y-103884422D01*
X94856200Y-104053702D01*
X94856200Y-104226298D01*
X94822529Y-104395578D01*
X94756479Y-104555037D01*
X94660589Y-104698545D01*
X94538545Y-104820589D01*
X94395037Y-104916479D01*
X94235578Y-104982529D01*
X94090387Y-105011409D01*
X94066299Y-105016200D01*
X93893701Y-105016200D01*
X93869613Y-105011409D01*
X93724422Y-104982529D01*
X93564963Y-104916479D01*
X93421455Y-104820589D01*
X93299411Y-104698545D01*
X93203521Y-104555037D01*
X93137471Y-104395578D01*
X93103800Y-104226298D01*
X93103800Y-104053702D01*
X93137471Y-103884422D01*
X93203521Y-103724963D01*
X93299411Y-103581455D01*
X93421455Y-103459411D01*
X93564963Y-103363521D01*
X93724422Y-103297471D01*
X93869613Y-103268591D01*
X93893701Y-103263800D01*
X94066299Y-103263800D01*
X94090387Y-103268591D01*
G37*
G36*
X122030387Y-103268591D02*
G01*
X122175578Y-103297471D01*
X122335037Y-103363521D01*
X122478545Y-103459411D01*
X122600589Y-103581455D01*
X122696479Y-103724963D01*
X122762529Y-103884422D01*
X122796200Y-104053702D01*
X122796200Y-104226298D01*
X122762529Y-104395578D01*
X122696479Y-104555037D01*
X122600589Y-104698545D01*
X122478545Y-104820589D01*
X122335037Y-104916479D01*
X122175578Y-104982529D01*
X122030387Y-105011409D01*
X122006299Y-105016200D01*
X121833701Y-105016200D01*
X121809613Y-105011409D01*
X121664422Y-104982529D01*
X121504963Y-104916479D01*
X121361455Y-104820589D01*
X121239411Y-104698545D01*
X121143521Y-104555037D01*
X121077471Y-104395578D01*
X121043800Y-104226298D01*
X121043800Y-104053702D01*
X121077471Y-103884422D01*
X121143521Y-103724963D01*
X121239411Y-103581455D01*
X121361455Y-103459411D01*
X121504963Y-103363521D01*
X121664422Y-103297471D01*
X121809613Y-103268591D01*
X121833701Y-103263800D01*
X122006299Y-103263800D01*
X122030387Y-103268591D01*
G37*
G36*
X91550387Y-103268591D02*
G01*
X91695578Y-103297471D01*
X91855037Y-103363521D01*
X91998545Y-103459411D01*
X92120589Y-103581455D01*
X92216479Y-103724963D01*
X92282529Y-103884422D01*
X92316200Y-104053702D01*
X92316200Y-104226298D01*
X92282529Y-104395578D01*
X92216479Y-104555037D01*
X92120589Y-104698545D01*
X91998545Y-104820589D01*
X91855037Y-104916479D01*
X91695578Y-104982529D01*
X91550387Y-105011409D01*
X91526299Y-105016200D01*
X91353701Y-105016200D01*
X91329613Y-105011409D01*
X91184422Y-104982529D01*
X91024963Y-104916479D01*
X90881455Y-104820589D01*
X90759411Y-104698545D01*
X90663521Y-104555037D01*
X90597471Y-104395578D01*
X90563800Y-104226298D01*
X90563800Y-104053702D01*
X90597471Y-103884422D01*
X90663521Y-103724963D01*
X90759411Y-103581455D01*
X90881455Y-103459411D01*
X91024963Y-103363521D01*
X91184422Y-103297471D01*
X91329613Y-103268591D01*
X91353701Y-103263800D01*
X91526299Y-103263800D01*
X91550387Y-103268591D01*
G37*
G36*
X124570387Y-103268591D02*
G01*
X124715578Y-103297471D01*
X124875037Y-103363521D01*
X125018545Y-103459411D01*
X125140589Y-103581455D01*
X125236479Y-103724963D01*
X125302529Y-103884422D01*
X125336200Y-104053702D01*
X125336200Y-104226298D01*
X125302529Y-104395578D01*
X125236479Y-104555037D01*
X125140589Y-104698545D01*
X125018545Y-104820589D01*
X124875037Y-104916479D01*
X124715578Y-104982529D01*
X124570387Y-105011409D01*
X124546299Y-105016200D01*
X124373701Y-105016200D01*
X124349613Y-105011409D01*
X124204422Y-104982529D01*
X124044963Y-104916479D01*
X123901455Y-104820589D01*
X123779411Y-104698545D01*
X123683521Y-104555037D01*
X123617471Y-104395578D01*
X123583800Y-104226298D01*
X123583800Y-104053702D01*
X123617471Y-103884422D01*
X123683521Y-103724963D01*
X123779411Y-103581455D01*
X123901455Y-103459411D01*
X124044963Y-103363521D01*
X124204422Y-103297471D01*
X124349613Y-103268591D01*
X124373701Y-103263800D01*
X124546299Y-103263800D01*
X124570387Y-103268591D01*
G37*
G36*
X89010387Y-103268591D02*
G01*
X89155578Y-103297471D01*
X89315037Y-103363521D01*
X89458545Y-103459411D01*
X89580589Y-103581455D01*
X89676479Y-103724963D01*
X89742529Y-103884422D01*
X89776200Y-104053702D01*
X89776200Y-104226298D01*
X89742529Y-104395578D01*
X89676479Y-104555037D01*
X89580589Y-104698545D01*
X89458545Y-104820589D01*
X89315037Y-104916479D01*
X89155578Y-104982529D01*
X89010387Y-105011409D01*
X88986299Y-105016200D01*
X88813701Y-105016200D01*
X88789613Y-105011409D01*
X88644422Y-104982529D01*
X88484963Y-104916479D01*
X88341455Y-104820589D01*
X88219411Y-104698545D01*
X88123521Y-104555037D01*
X88057471Y-104395578D01*
X88023800Y-104226298D01*
X88023800Y-104053702D01*
X88057471Y-103884422D01*
X88123521Y-103724963D01*
X88219411Y-103581455D01*
X88341455Y-103459411D01*
X88484963Y-103363521D01*
X88644422Y-103297471D01*
X88789613Y-103268591D01*
X88813701Y-103263800D01*
X88986299Y-103263800D01*
X89010387Y-103268591D01*
G37*
G36*
X127110387Y-103268591D02*
G01*
X127255578Y-103297471D01*
X127415037Y-103363521D01*
X127558545Y-103459411D01*
X127680589Y-103581455D01*
X127776479Y-103724963D01*
X127842529Y-103884422D01*
X127876200Y-104053702D01*
X127876200Y-104226298D01*
X127842529Y-104395578D01*
X127776479Y-104555037D01*
X127680589Y-104698545D01*
X127558545Y-104820589D01*
X127415037Y-104916479D01*
X127255578Y-104982529D01*
X127110387Y-105011409D01*
X127086299Y-105016200D01*
X126913701Y-105016200D01*
X126889613Y-105011409D01*
X126744422Y-104982529D01*
X126584963Y-104916479D01*
X126441455Y-104820589D01*
X126319411Y-104698545D01*
X126223521Y-104555037D01*
X126157471Y-104395578D01*
X126123800Y-104226298D01*
X126123800Y-104053702D01*
X126157471Y-103884422D01*
X126223521Y-103724963D01*
X126319411Y-103581455D01*
X126441455Y-103459411D01*
X126584963Y-103363521D01*
X126744422Y-103297471D01*
X126889613Y-103268591D01*
X126913701Y-103263800D01*
X127086299Y-103263800D01*
X127110387Y-103268591D01*
G37*
G36*
X86470387Y-103268591D02*
G01*
X86615578Y-103297471D01*
X86775037Y-103363521D01*
X86918545Y-103459411D01*
X87040589Y-103581455D01*
X87136479Y-103724963D01*
X87202529Y-103884422D01*
X87236200Y-104053702D01*
X87236200Y-104226298D01*
X87202529Y-104395578D01*
X87136479Y-104555037D01*
X87040589Y-104698545D01*
X86918545Y-104820589D01*
X86775037Y-104916479D01*
X86615578Y-104982529D01*
X86470387Y-105011409D01*
X86446299Y-105016200D01*
X86273701Y-105016200D01*
X86249613Y-105011409D01*
X86104422Y-104982529D01*
X85944963Y-104916479D01*
X85801455Y-104820589D01*
X85679411Y-104698545D01*
X85583521Y-104555037D01*
X85517471Y-104395578D01*
X85483800Y-104226298D01*
X85483800Y-104053702D01*
X85517471Y-103884422D01*
X85583521Y-103724963D01*
X85679411Y-103581455D01*
X85801455Y-103459411D01*
X85944963Y-103363521D01*
X86104422Y-103297471D01*
X86249613Y-103268591D01*
X86273701Y-103263800D01*
X86446299Y-103263800D01*
X86470387Y-103268591D01*
G37*
G36*
X129650387Y-103268591D02*
G01*
X129795578Y-103297471D01*
X129955037Y-103363521D01*
X130098545Y-103459411D01*
X130220589Y-103581455D01*
X130316479Y-103724963D01*
X130382529Y-103884422D01*
X130416200Y-104053702D01*
X130416200Y-104226298D01*
X130382529Y-104395578D01*
X130316479Y-104555037D01*
X130220589Y-104698545D01*
X130098545Y-104820589D01*
X129955037Y-104916479D01*
X129795578Y-104982529D01*
X129650387Y-105011409D01*
X129626299Y-105016200D01*
X129453701Y-105016200D01*
X129429613Y-105011409D01*
X129284422Y-104982529D01*
X129124963Y-104916479D01*
X128981455Y-104820589D01*
X128859411Y-104698545D01*
X128763521Y-104555037D01*
X128697471Y-104395578D01*
X128663800Y-104226298D01*
X128663800Y-104053702D01*
X128697471Y-103884422D01*
X128763521Y-103724963D01*
X128859411Y-103581455D01*
X128981455Y-103459411D01*
X129124963Y-103363521D01*
X129284422Y-103297471D01*
X129429613Y-103268591D01*
X129453701Y-103263800D01*
X129626299Y-103263800D01*
X129650387Y-103268591D01*
G37*
G36*
X132190387Y-103268591D02*
G01*
X132335578Y-103297471D01*
X132495037Y-103363521D01*
X132638545Y-103459411D01*
X132760589Y-103581455D01*
X132856479Y-103724963D01*
X132922529Y-103884422D01*
X132956200Y-104053702D01*
X132956200Y-104226298D01*
X132922529Y-104395578D01*
X132856479Y-104555037D01*
X132760589Y-104698545D01*
X132638545Y-104820589D01*
X132495037Y-104916479D01*
X132335578Y-104982529D01*
X132190387Y-105011409D01*
X132166299Y-105016200D01*
X131993701Y-105016200D01*
X131969613Y-105011409D01*
X131824422Y-104982529D01*
X131664963Y-104916479D01*
X131521455Y-104820589D01*
X131399411Y-104698545D01*
X131303521Y-104555037D01*
X131237471Y-104395578D01*
X131203800Y-104226298D01*
X131203800Y-104053702D01*
X131237471Y-103884422D01*
X131303521Y-103724963D01*
X131399411Y-103581455D01*
X131521455Y-103459411D01*
X131664963Y-103363521D01*
X131824422Y-103297471D01*
X131969613Y-103268591D01*
X131993701Y-103263800D01*
X132166299Y-103263800D01*
X132190387Y-103268591D01*
G37*
G36*
X134730387Y-103268591D02*
G01*
X134875578Y-103297471D01*
X135035037Y-103363521D01*
X135178545Y-103459411D01*
X135300589Y-103581455D01*
X135396479Y-103724963D01*
X135462529Y-103884422D01*
X135496200Y-104053702D01*
X135496200Y-104226298D01*
X135462529Y-104395578D01*
X135396479Y-104555037D01*
X135300589Y-104698545D01*
X135178545Y-104820589D01*
X135035037Y-104916479D01*
X134875578Y-104982529D01*
X134730387Y-105011409D01*
X134706299Y-105016200D01*
X134533701Y-105016200D01*
X134509613Y-105011409D01*
X134364422Y-104982529D01*
X134204963Y-104916479D01*
X134061455Y-104820589D01*
X133939411Y-104698545D01*
X133843521Y-104555037D01*
X133777471Y-104395578D01*
X133743800Y-104226298D01*
X133743800Y-104053702D01*
X133777471Y-103884422D01*
X133843521Y-103724963D01*
X133939411Y-103581455D01*
X134061455Y-103459411D01*
X134204963Y-103363521D01*
X134364422Y-103297471D01*
X134509613Y-103268591D01*
X134533701Y-103263800D01*
X134706299Y-103263800D01*
X134730387Y-103268591D01*
G37*
G36*
X137270387Y-103268591D02*
G01*
X137415578Y-103297471D01*
X137575037Y-103363521D01*
X137718545Y-103459411D01*
X137840589Y-103581455D01*
X137936479Y-103724963D01*
X138002529Y-103884422D01*
X138036200Y-104053702D01*
X138036200Y-104226298D01*
X138002529Y-104395578D01*
X137936479Y-104555037D01*
X137840589Y-104698545D01*
X137718545Y-104820589D01*
X137575037Y-104916479D01*
X137415578Y-104982529D01*
X137270387Y-105011409D01*
X137246299Y-105016200D01*
X137073701Y-105016200D01*
X137049613Y-105011409D01*
X136904422Y-104982529D01*
X136744963Y-104916479D01*
X136601455Y-104820589D01*
X136479411Y-104698545D01*
X136383521Y-104555037D01*
X136317471Y-104395578D01*
X136283800Y-104226298D01*
X136283800Y-104053702D01*
X136317471Y-103884422D01*
X136383521Y-103724963D01*
X136479411Y-103581455D01*
X136601455Y-103459411D01*
X136744963Y-103363521D01*
X136904422Y-103297471D01*
X137049613Y-103268591D01*
X137073701Y-103263800D01*
X137246299Y-103263800D01*
X137270387Y-103268591D01*
G37*
G36*
X139810387Y-103268591D02*
G01*
X139955578Y-103297471D01*
X140115037Y-103363521D01*
X140258545Y-103459411D01*
X140380589Y-103581455D01*
X140476479Y-103724963D01*
X140542529Y-103884422D01*
X140576200Y-104053702D01*
X140576200Y-104226298D01*
X140542529Y-104395578D01*
X140476479Y-104555037D01*
X140380589Y-104698545D01*
X140258545Y-104820589D01*
X140115037Y-104916479D01*
X139955578Y-104982529D01*
X139810387Y-105011409D01*
X139786299Y-105016200D01*
X139613701Y-105016200D01*
X139589613Y-105011409D01*
X139444422Y-104982529D01*
X139284963Y-104916479D01*
X139141455Y-104820589D01*
X139019411Y-104698545D01*
X138923521Y-104555037D01*
X138857471Y-104395578D01*
X138823800Y-104226298D01*
X138823800Y-104053702D01*
X138857471Y-103884422D01*
X138923521Y-103724963D01*
X139019411Y-103581455D01*
X139141455Y-103459411D01*
X139284963Y-103363521D01*
X139444422Y-103297471D01*
X139589613Y-103268591D01*
X139613701Y-103263800D01*
X139786299Y-103263800D01*
X139810387Y-103268591D01*
G37*
G36*
X142350387Y-103268591D02*
G01*
X142495578Y-103297471D01*
X142655037Y-103363521D01*
X142798545Y-103459411D01*
X142920589Y-103581455D01*
X143016479Y-103724963D01*
X143082529Y-103884422D01*
X143116200Y-104053702D01*
X143116200Y-104226298D01*
X143082529Y-104395578D01*
X143016479Y-104555037D01*
X142920589Y-104698545D01*
X142798545Y-104820589D01*
X142655037Y-104916479D01*
X142495578Y-104982529D01*
X142350387Y-105011409D01*
X142326299Y-105016200D01*
X142153701Y-105016200D01*
X142129613Y-105011409D01*
X141984422Y-104982529D01*
X141824963Y-104916479D01*
X141681455Y-104820589D01*
X141559411Y-104698545D01*
X141463521Y-104555037D01*
X141397471Y-104395578D01*
X141363800Y-104226298D01*
X141363800Y-104053702D01*
X141397471Y-103884422D01*
X141463521Y-103724963D01*
X141559411Y-103581455D01*
X141681455Y-103459411D01*
X141824963Y-103363521D01*
X141984422Y-103297471D01*
X142129613Y-103268591D01*
X142153701Y-103263800D01*
X142326299Y-103263800D01*
X142350387Y-103268591D01*
G37*
G36*
X144890387Y-103268591D02*
G01*
X145035578Y-103297471D01*
X145195037Y-103363521D01*
X145338545Y-103459411D01*
X145460589Y-103581455D01*
X145556479Y-103724963D01*
X145622529Y-103884422D01*
X145656200Y-104053702D01*
X145656200Y-104226298D01*
X145622529Y-104395578D01*
X145556479Y-104555037D01*
X145460589Y-104698545D01*
X145338545Y-104820589D01*
X145195037Y-104916479D01*
X145035578Y-104982529D01*
X144890387Y-105011409D01*
X144866299Y-105016200D01*
X144693701Y-105016200D01*
X144669613Y-105011409D01*
X144524422Y-104982529D01*
X144364963Y-104916479D01*
X144221455Y-104820589D01*
X144099411Y-104698545D01*
X144003521Y-104555037D01*
X143937471Y-104395578D01*
X143903800Y-104226298D01*
X143903800Y-104053702D01*
X143937471Y-103884422D01*
X144003521Y-103724963D01*
X144099411Y-103581455D01*
X144221455Y-103459411D01*
X144364963Y-103363521D01*
X144524422Y-103297471D01*
X144669613Y-103268591D01*
X144693701Y-103263800D01*
X144866299Y-103263800D01*
X144890387Y-103268591D01*
G37*
G36*
X147430387Y-103268591D02*
G01*
X147575578Y-103297471D01*
X147735037Y-103363521D01*
X147878545Y-103459411D01*
X148000589Y-103581455D01*
X148096479Y-103724963D01*
X148162529Y-103884422D01*
X148196200Y-104053702D01*
X148196200Y-104226298D01*
X148162529Y-104395578D01*
X148096479Y-104555037D01*
X148000589Y-104698545D01*
X147878545Y-104820589D01*
X147735037Y-104916479D01*
X147575578Y-104982529D01*
X147430387Y-105011409D01*
X147406299Y-105016200D01*
X147233701Y-105016200D01*
X147209613Y-105011409D01*
X147064422Y-104982529D01*
X146904963Y-104916479D01*
X146761455Y-104820589D01*
X146639411Y-104698545D01*
X146543521Y-104555037D01*
X146477471Y-104395578D01*
X146443800Y-104226298D01*
X146443800Y-104053702D01*
X146477471Y-103884422D01*
X146543521Y-103724963D01*
X146639411Y-103581455D01*
X146761455Y-103459411D01*
X146904963Y-103363521D01*
X147064422Y-103297471D01*
X147209613Y-103268591D01*
X147233701Y-103263800D01*
X147406299Y-103263800D01*
X147430387Y-103268591D01*
G37*
G36*
X149970387Y-103268591D02*
G01*
X150115578Y-103297471D01*
X150275037Y-103363521D01*
X150418545Y-103459411D01*
X150540589Y-103581455D01*
X150636479Y-103724963D01*
X150702529Y-103884422D01*
X150736200Y-104053702D01*
X150736200Y-104226298D01*
X150702529Y-104395578D01*
X150636479Y-104555037D01*
X150540589Y-104698545D01*
X150418545Y-104820589D01*
X150275037Y-104916479D01*
X150115578Y-104982529D01*
X149970387Y-105011409D01*
X149946299Y-105016200D01*
X149773701Y-105016200D01*
X149749613Y-105011409D01*
X149604422Y-104982529D01*
X149444963Y-104916479D01*
X149301455Y-104820589D01*
X149179411Y-104698545D01*
X149083521Y-104555037D01*
X149017471Y-104395578D01*
X148983800Y-104226298D01*
X148983800Y-104053702D01*
X149017471Y-103884422D01*
X149083521Y-103724963D01*
X149179411Y-103581455D01*
X149301455Y-103459411D01*
X149444963Y-103363521D01*
X149604422Y-103297471D01*
X149749613Y-103268591D01*
X149773701Y-103263800D01*
X149946299Y-103263800D01*
X149970387Y-103268591D01*
G37*
G36*
X152510387Y-103268591D02*
G01*
X152655578Y-103297471D01*
X152815037Y-103363521D01*
X152958545Y-103459411D01*
X153080589Y-103581455D01*
X153176479Y-103724963D01*
X153242529Y-103884422D01*
X153276200Y-104053702D01*
X153276200Y-104226298D01*
X153242529Y-104395578D01*
X153176479Y-104555037D01*
X153080589Y-104698545D01*
X152958545Y-104820589D01*
X152815037Y-104916479D01*
X152655578Y-104982529D01*
X152510387Y-105011409D01*
X152486299Y-105016200D01*
X152313701Y-105016200D01*
X152289613Y-105011409D01*
X152144422Y-104982529D01*
X151984963Y-104916479D01*
X151841455Y-104820589D01*
X151719411Y-104698545D01*
X151623521Y-104555037D01*
X151557471Y-104395578D01*
X151523800Y-104226298D01*
X151523800Y-104053702D01*
X151557471Y-103884422D01*
X151623521Y-103724963D01*
X151719411Y-103581455D01*
X151841455Y-103459411D01*
X151984963Y-103363521D01*
X152144422Y-103297471D01*
X152289613Y-103268591D01*
X152313701Y-103263800D01*
X152486299Y-103263800D01*
X152510387Y-103268591D01*
G37*
G36*
X155050387Y-103268591D02*
G01*
X155195578Y-103297471D01*
X155355037Y-103363521D01*
X155498545Y-103459411D01*
X155620589Y-103581455D01*
X155716479Y-103724963D01*
X155782529Y-103884422D01*
X155816200Y-104053702D01*
X155816200Y-104226298D01*
X155782529Y-104395578D01*
X155716479Y-104555037D01*
X155620589Y-104698545D01*
X155498545Y-104820589D01*
X155355037Y-104916479D01*
X155195578Y-104982529D01*
X155050387Y-105011409D01*
X155026299Y-105016200D01*
X154853701Y-105016200D01*
X154829613Y-105011409D01*
X154684422Y-104982529D01*
X154524963Y-104916479D01*
X154381455Y-104820589D01*
X154259411Y-104698545D01*
X154163521Y-104555037D01*
X154097471Y-104395578D01*
X154063800Y-104226298D01*
X154063800Y-104053702D01*
X154097471Y-103884422D01*
X154163521Y-103724963D01*
X154259411Y-103581455D01*
X154381455Y-103459411D01*
X154524963Y-103363521D01*
X154684422Y-103297471D01*
X154829613Y-103268591D01*
X154853701Y-103263800D01*
X155026299Y-103263800D01*
X155050387Y-103268591D01*
G37*
G36*
X157590387Y-103268591D02*
G01*
X157735578Y-103297471D01*
X157895037Y-103363521D01*
X158038545Y-103459411D01*
X158160589Y-103581455D01*
X158256479Y-103724963D01*
X158322529Y-103884422D01*
X158356200Y-104053702D01*
X158356200Y-104226298D01*
X158322529Y-104395578D01*
X158256479Y-104555037D01*
X158160589Y-104698545D01*
X158038545Y-104820589D01*
X157895037Y-104916479D01*
X157735578Y-104982529D01*
X157590387Y-105011409D01*
X157566299Y-105016200D01*
X157393701Y-105016200D01*
X157369613Y-105011409D01*
X157224422Y-104982529D01*
X157064963Y-104916479D01*
X156921455Y-104820589D01*
X156799411Y-104698545D01*
X156703521Y-104555037D01*
X156637471Y-104395578D01*
X156603800Y-104226298D01*
X156603800Y-104053702D01*
X156637471Y-103884422D01*
X156703521Y-103724963D01*
X156799411Y-103581455D01*
X156921455Y-103459411D01*
X157064963Y-103363521D01*
X157224422Y-103297471D01*
X157369613Y-103268591D01*
X157393701Y-103263800D01*
X157566299Y-103263800D01*
X157590387Y-103268591D01*
G37*
G36*
X160130387Y-103268591D02*
G01*
X160275578Y-103297471D01*
X160435037Y-103363521D01*
X160578545Y-103459411D01*
X160700589Y-103581455D01*
X160796479Y-103724963D01*
X160862529Y-103884422D01*
X160896200Y-104053702D01*
X160896200Y-104226298D01*
X160862529Y-104395578D01*
X160796479Y-104555037D01*
X160700589Y-104698545D01*
X160578545Y-104820589D01*
X160435037Y-104916479D01*
X160275578Y-104982529D01*
X160130387Y-105011409D01*
X160106299Y-105016200D01*
X159933701Y-105016200D01*
X159909613Y-105011409D01*
X159764422Y-104982529D01*
X159604963Y-104916479D01*
X159461455Y-104820589D01*
X159339411Y-104698545D01*
X159243521Y-104555037D01*
X159177471Y-104395578D01*
X159143800Y-104226298D01*
X159143800Y-104053702D01*
X159177471Y-103884422D01*
X159243521Y-103724963D01*
X159339411Y-103581455D01*
X159461455Y-103459411D01*
X159604963Y-103363521D01*
X159764422Y-103297471D01*
X159909613Y-103268591D01*
X159933701Y-103263800D01*
X160106299Y-103263800D01*
X160130387Y-103268591D01*
G37*
G36*
X162670387Y-103268591D02*
G01*
X162815578Y-103297471D01*
X162975037Y-103363521D01*
X163118545Y-103459411D01*
X163240589Y-103581455D01*
X163336479Y-103724963D01*
X163402529Y-103884422D01*
X163436200Y-104053702D01*
X163436200Y-104226298D01*
X163402529Y-104395578D01*
X163336479Y-104555037D01*
X163240589Y-104698545D01*
X163118545Y-104820589D01*
X162975037Y-104916479D01*
X162815578Y-104982529D01*
X162670387Y-105011409D01*
X162646299Y-105016200D01*
X162473701Y-105016200D01*
X162449613Y-105011409D01*
X162304422Y-104982529D01*
X162144963Y-104916479D01*
X162001455Y-104820589D01*
X161879411Y-104698545D01*
X161783521Y-104555037D01*
X161717471Y-104395578D01*
X161683800Y-104226298D01*
X161683800Y-104053702D01*
X161717471Y-103884422D01*
X161783521Y-103724963D01*
X161879411Y-103581455D01*
X162001455Y-103459411D01*
X162144963Y-103363521D01*
X162304422Y-103297471D01*
X162449613Y-103268591D01*
X162473701Y-103263800D01*
X162646299Y-103263800D01*
X162670387Y-103268591D01*
G37*
G36*
X165210387Y-103268591D02*
G01*
X165355578Y-103297471D01*
X165515037Y-103363521D01*
X165658545Y-103459411D01*
X165780589Y-103581455D01*
X165876479Y-103724963D01*
X165942529Y-103884422D01*
X165976200Y-104053702D01*
X165976200Y-104226298D01*
X165942529Y-104395578D01*
X165876479Y-104555037D01*
X165780589Y-104698545D01*
X165658545Y-104820589D01*
X165515037Y-104916479D01*
X165355578Y-104982529D01*
X165210387Y-105011409D01*
X165186299Y-105016200D01*
X165013701Y-105016200D01*
X164989613Y-105011409D01*
X164844422Y-104982529D01*
X164684963Y-104916479D01*
X164541455Y-104820589D01*
X164419411Y-104698545D01*
X164323521Y-104555037D01*
X164257471Y-104395578D01*
X164223800Y-104226298D01*
X164223800Y-104053702D01*
X164257471Y-103884422D01*
X164323521Y-103724963D01*
X164419411Y-103581455D01*
X164541455Y-103459411D01*
X164684963Y-103363521D01*
X164844422Y-103297471D01*
X164989613Y-103268591D01*
X165013701Y-103263800D01*
X165186299Y-103263800D01*
X165210387Y-103268591D01*
G37*
M02*
