G04 #@! TF.GenerationSoftware,KiCad,Pcbnew,(5.1.5-0-10_14)*
G04 #@! TF.CreationDate,2020-07-05T23:06:11-04:00*
G04 #@! TF.ProjectId,MacPlusVGA,4d616350-6c75-4735-9647-412e6b696361,rev?*
G04 #@! TF.SameCoordinates,Original*
G04 #@! TF.FileFunction,Other,Fab,Top*
%FSLAX46Y46*%
G04 Gerber Fmt 4.6, Leading zero omitted, Abs format (unit mm)*
G04 Created by KiCad (PCBNEW (5.1.5-0-10_14)) date 2020-07-05 23:06:11*
%MOMM*%
%LPD*%
G04 APERTURE LIST*
%ADD10C,0.100000*%
%ADD11C,0.150000*%
%ADD12C,0.203200*%
%ADD13C,0.063500*%
%ADD14C,0.031750*%
%ADD15C,0.127000*%
G04 APERTURE END LIST*
D10*
X183538500Y-80074500D02*
X182538500Y-79074500D01*
X203033500Y-80074500D02*
X183538500Y-80074500D01*
X203033500Y-68769500D02*
X203033500Y-80074500D01*
X182538500Y-68769500D02*
X203033500Y-68769500D01*
X182538500Y-79074500D02*
X182538500Y-68769500D01*
X183538500Y-96838500D02*
X182538500Y-95838500D01*
X203033500Y-96838500D02*
X183538500Y-96838500D01*
X203033500Y-85533500D02*
X203033500Y-96838500D01*
X182538500Y-85533500D02*
X203033500Y-85533500D01*
X182538500Y-95838500D02*
X182538500Y-85533500D01*
X86090000Y-126808500D02*
X85090000Y-125808500D01*
X166370000Y-126808500D02*
X86090000Y-126808500D01*
X166370000Y-104458500D02*
X166370000Y-126808500D01*
X85090000Y-104458500D02*
X166370000Y-104458500D01*
X85090000Y-125808500D02*
X85090000Y-104458500D01*
D11*
X168375000Y-114250000D02*
X168375000Y-112250000D01*
X169625000Y-114250000D02*
X168375000Y-114250000D01*
X169625000Y-112250000D02*
X169625000Y-114250000D01*
X168375000Y-112250000D02*
X169625000Y-112250000D01*
X130175000Y-114250000D02*
X130175000Y-112250000D01*
X131425000Y-114250000D02*
X130175000Y-114250000D01*
X131425000Y-112250000D02*
X131425000Y-114250000D01*
X130175000Y-112250000D02*
X131425000Y-112250000D01*
D10*
X201400000Y-143090000D02*
X201400000Y-138150000D01*
X198200000Y-143090000D02*
X198200000Y-138150000D01*
X176400000Y-143090000D02*
X176400000Y-138150000D01*
X173200000Y-143090000D02*
X173200000Y-138150000D01*
X202300000Y-143490000D02*
X197300000Y-143490000D01*
X202300000Y-148490000D02*
X202300000Y-143490000D01*
X197300000Y-148490000D02*
X202300000Y-148490000D01*
X197300000Y-143490000D02*
X197300000Y-148490000D01*
X177300000Y-143490000D02*
X172300000Y-143490000D01*
X177300000Y-148490000D02*
X177300000Y-143490000D01*
X172300000Y-148490000D02*
X177300000Y-148490000D01*
X172300000Y-143490000D02*
X172300000Y-148490000D01*
X195450000Y-143490000D02*
X179150000Y-143490000D01*
X195450000Y-149490000D02*
X195450000Y-143490000D01*
X179150000Y-149490000D02*
X195450000Y-149490000D01*
X179150000Y-143490000D02*
X179150000Y-149490000D01*
X202725000Y-143090000D02*
X171875000Y-143090000D01*
X202725000Y-143490000D02*
X202725000Y-143090000D01*
X171875000Y-143490000D02*
X202725000Y-143490000D01*
X171875000Y-143090000D02*
X171875000Y-143490000D01*
X202725000Y-134490000D02*
X171875000Y-134490000D01*
X202725000Y-143090000D02*
X202725000Y-134490000D01*
X171875000Y-143090000D02*
X202725000Y-143090000D01*
X171875000Y-134490000D02*
X171875000Y-143090000D01*
X201400000Y-138150000D02*
G75*
G03X198200000Y-138150000I-1600000J0D01*
G01*
X176400000Y-138150000D02*
G75*
G03X173200000Y-138150000I-1600000J0D01*
G01*
X212917000Y-140704000D02*
X212917000Y-135854000D01*
X213467000Y-120884000D02*
X212917000Y-121444000D01*
X205167000Y-140704000D02*
X212917000Y-140704000D01*
X204617000Y-120884000D02*
X213467000Y-120884000D01*
X204617000Y-120884000D02*
X205167000Y-121444000D01*
X213467000Y-141244000D02*
X212917000Y-140704000D01*
X205167000Y-121444000D02*
X212917000Y-121444000D01*
X204617000Y-141244000D02*
X205167000Y-140704000D01*
X204617000Y-141244000D02*
X204617000Y-120884000D01*
X212917000Y-126274000D02*
X212917000Y-121444000D01*
X212917000Y-135854000D02*
X213467000Y-135854000D01*
X212917000Y-126274000D02*
X213467000Y-126274000D01*
X204617000Y-141244000D02*
X213467000Y-141244000D01*
X213467000Y-141244000D02*
X213467000Y-120884000D01*
X205167000Y-140704000D02*
X205167000Y-121444000D01*
D11*
X180604000Y-69731500D02*
X180604000Y-67731500D01*
X181854000Y-69731500D02*
X180604000Y-69731500D01*
X181854000Y-67731500D02*
X181854000Y-69731500D01*
X180604000Y-67731500D02*
X181854000Y-67731500D01*
D10*
X196150000Y-103150000D02*
X194550000Y-103150000D01*
X196150000Y-102350000D02*
X196150000Y-103150000D01*
X194550000Y-102350000D02*
X196150000Y-102350000D01*
X194550000Y-103150000D02*
X194550000Y-102350000D01*
D11*
X180604000Y-86495500D02*
X180604000Y-84495500D01*
X181854000Y-86495500D02*
X180604000Y-86495500D01*
X181854000Y-84495500D02*
X181854000Y-86495500D01*
X180604000Y-84495500D02*
X181854000Y-84495500D01*
D10*
X176550000Y-127950000D02*
X178150000Y-127950000D01*
X176550000Y-128750000D02*
X176550000Y-127950000D01*
X178150000Y-128750000D02*
X176550000Y-128750000D01*
X178150000Y-127950000D02*
X178150000Y-128750000D01*
X176550000Y-102350000D02*
X178150000Y-102350000D01*
X176550000Y-103150000D02*
X176550000Y-102350000D01*
X178150000Y-103150000D02*
X176550000Y-103150000D01*
X178150000Y-102350000D02*
X178150000Y-103150000D01*
X173200000Y-116350000D02*
X173200000Y-114750000D01*
X174000000Y-116350000D02*
X173200000Y-116350000D01*
X174000000Y-114750000D02*
X174000000Y-116350000D01*
X173200000Y-114750000D02*
X174000000Y-114750000D01*
D11*
X126310000Y-107686000D02*
X124310000Y-107686000D01*
X126310000Y-106436000D02*
X126310000Y-107686000D01*
X124310000Y-106436000D02*
X126310000Y-106436000D01*
X124310000Y-107686000D02*
X124310000Y-106436000D01*
X126825000Y-116400000D02*
X126825000Y-114400000D01*
X128075000Y-116400000D02*
X126825000Y-116400000D01*
X128075000Y-114400000D02*
X128075000Y-116400000D01*
X126825000Y-114400000D02*
X128075000Y-114400000D01*
D10*
X199500000Y-114750000D02*
X199500000Y-116350000D01*
X198700000Y-114750000D02*
X199500000Y-114750000D01*
X198700000Y-116350000D02*
X198700000Y-114750000D01*
X199500000Y-116350000D02*
X198700000Y-116350000D01*
X196150000Y-128750000D02*
X194550000Y-128750000D01*
X196150000Y-127950000D02*
X196150000Y-128750000D01*
X194550000Y-127950000D02*
X196150000Y-127950000D01*
X194550000Y-128750000D02*
X194550000Y-127950000D01*
X187150000Y-129150000D02*
X185550000Y-129150000D01*
X187150000Y-128350000D02*
X187150000Y-129150000D01*
X185550000Y-128350000D02*
X187150000Y-128350000D01*
X185550000Y-129150000D02*
X185550000Y-128350000D01*
X185550000Y-101950000D02*
X187150000Y-101950000D01*
X185550000Y-102750000D02*
X185550000Y-101950000D01*
X187150000Y-102750000D02*
X185550000Y-102750000D01*
X187150000Y-101950000D02*
X187150000Y-102750000D01*
X176350000Y-106550000D02*
X177350000Y-105550000D01*
X176350000Y-125550000D02*
X176350000Y-106550000D01*
X196350000Y-125550000D02*
X176350000Y-125550000D01*
X196350000Y-105550000D02*
X196350000Y-125550000D01*
X177350000Y-105550000D02*
X196350000Y-105550000D01*
X192225000Y-130800000D02*
X192225000Y-132800000D01*
X190975000Y-130800000D02*
X192225000Y-130800000D01*
X190975000Y-132800000D02*
X190975000Y-130800000D01*
X192225000Y-132800000D02*
X190975000Y-132800000D01*
X190225000Y-130800000D02*
X190225000Y-132800000D01*
X188975000Y-130800000D02*
X190225000Y-130800000D01*
X188975000Y-132800000D02*
X188975000Y-130800000D01*
X190225000Y-132800000D02*
X188975000Y-132800000D01*
X188225000Y-130800000D02*
X188225000Y-132800000D01*
X186975000Y-130800000D02*
X188225000Y-130800000D01*
X186975000Y-132800000D02*
X186975000Y-130800000D01*
X188225000Y-132800000D02*
X186975000Y-132800000D01*
X192975000Y-132800000D02*
X192975000Y-130800000D01*
X194225000Y-132800000D02*
X192975000Y-132800000D01*
X194225000Y-130800000D02*
X194225000Y-132800000D01*
X192975000Y-130800000D02*
X194225000Y-130800000D01*
X194975000Y-132800000D02*
X194975000Y-130800000D01*
X196225000Y-132800000D02*
X194975000Y-132800000D01*
X196225000Y-130800000D02*
X196225000Y-132800000D01*
X194975000Y-130800000D02*
X196225000Y-130800000D01*
X202400000Y-116800000D02*
X203400000Y-115800000D01*
X200900000Y-113600000D02*
X200900000Y-116800000D01*
X203400000Y-113600000D02*
X200900000Y-113600000D01*
X203400000Y-116800000D02*
X203400000Y-113600000D01*
X200900000Y-116800000D02*
X203400000Y-116800000D01*
X123150000Y-116900000D02*
X122150000Y-117900000D01*
X123150000Y-116900000D02*
X123150000Y-111200000D01*
X122150000Y-117900000D02*
X119450000Y-117900000D01*
X123150000Y-111200000D02*
X119450000Y-111200000D01*
X119450000Y-117900000D02*
X119450000Y-111200000D01*
D12*
X192340895Y-75041276D02*
X192998876Y-75041276D01*
X193076285Y-75002571D01*
X193114990Y-74963866D01*
X193153695Y-74886457D01*
X193153695Y-74731638D01*
X193114990Y-74654228D01*
X193076285Y-74615523D01*
X192998876Y-74576819D01*
X192340895Y-74576819D01*
X192418304Y-74228476D02*
X192379600Y-74189771D01*
X192340895Y-74112361D01*
X192340895Y-73918838D01*
X192379600Y-73841428D01*
X192418304Y-73802723D01*
X192495714Y-73764019D01*
X192573123Y-73764019D01*
X192689238Y-73802723D01*
X193153695Y-74267180D01*
X193153695Y-73764019D01*
X194423695Y-77537733D02*
X193610895Y-77537733D01*
X194384990Y-77189390D02*
X194423695Y-77073276D01*
X194423695Y-76879752D01*
X194384990Y-76802342D01*
X194346285Y-76763638D01*
X194268876Y-76724933D01*
X194191466Y-76724933D01*
X194114057Y-76763638D01*
X194075352Y-76802342D01*
X194036647Y-76879752D01*
X193997942Y-77034571D01*
X193959238Y-77111980D01*
X193920533Y-77150685D01*
X193843123Y-77189390D01*
X193765714Y-77189390D01*
X193688304Y-77150685D01*
X193649600Y-77111980D01*
X193610895Y-77034571D01*
X193610895Y-76841047D01*
X193649600Y-76724933D01*
X193610895Y-76028247D02*
X193610895Y-76183066D01*
X193649600Y-76260476D01*
X193688304Y-76299180D01*
X193804419Y-76376590D01*
X193959238Y-76415295D01*
X194268876Y-76415295D01*
X194346285Y-76376590D01*
X194384990Y-76337885D01*
X194423695Y-76260476D01*
X194423695Y-76105657D01*
X194384990Y-76028247D01*
X194346285Y-75989542D01*
X194268876Y-75950838D01*
X194075352Y-75950838D01*
X193997942Y-75989542D01*
X193959238Y-76028247D01*
X193920533Y-76105657D01*
X193920533Y-76260476D01*
X193959238Y-76337885D01*
X193997942Y-76376590D01*
X194075352Y-76415295D01*
X193688304Y-75641200D02*
X193649600Y-75602495D01*
X193610895Y-75525085D01*
X193610895Y-75331561D01*
X193649600Y-75254152D01*
X193688304Y-75215447D01*
X193765714Y-75176742D01*
X193843123Y-75176742D01*
X193959238Y-75215447D01*
X194423695Y-75679904D01*
X194423695Y-75176742D01*
X194346285Y-74363942D02*
X194384990Y-74402647D01*
X194423695Y-74518761D01*
X194423695Y-74596171D01*
X194384990Y-74712285D01*
X194307580Y-74789695D01*
X194230171Y-74828400D01*
X194075352Y-74867104D01*
X193959238Y-74867104D01*
X193804419Y-74828400D01*
X193727009Y-74789695D01*
X193649600Y-74712285D01*
X193610895Y-74596171D01*
X193610895Y-74518761D01*
X193649600Y-74402647D01*
X193688304Y-74363942D01*
X194423695Y-73589847D02*
X194423695Y-74054304D01*
X194423695Y-73822076D02*
X193610895Y-73822076D01*
X193727009Y-73899485D01*
X193804419Y-73976895D01*
X193843123Y-74054304D01*
X193610895Y-73086685D02*
X193610895Y-73009276D01*
X193649600Y-72931866D01*
X193688304Y-72893161D01*
X193765714Y-72854457D01*
X193920533Y-72815752D01*
X194114057Y-72815752D01*
X194268876Y-72854457D01*
X194346285Y-72893161D01*
X194384990Y-72931866D01*
X194423695Y-73009276D01*
X194423695Y-73086685D01*
X194384990Y-73164095D01*
X194346285Y-73202800D01*
X194268876Y-73241504D01*
X194114057Y-73280209D01*
X193920533Y-73280209D01*
X193765714Y-73241504D01*
X193688304Y-73202800D01*
X193649600Y-73164095D01*
X193610895Y-73086685D01*
X193688304Y-72506114D02*
X193649600Y-72467409D01*
X193610895Y-72390000D01*
X193610895Y-72196476D01*
X193649600Y-72119066D01*
X193688304Y-72080361D01*
X193765714Y-72041657D01*
X193843123Y-72041657D01*
X193959238Y-72080361D01*
X194423695Y-72544819D01*
X194423695Y-72041657D01*
X193881828Y-71344971D02*
X194423695Y-71344971D01*
X193572190Y-71538495D02*
X194152761Y-71732019D01*
X194152761Y-71228857D01*
X192340895Y-91805276D02*
X192998876Y-91805276D01*
X193076285Y-91766571D01*
X193114990Y-91727866D01*
X193153695Y-91650457D01*
X193153695Y-91495638D01*
X193114990Y-91418228D01*
X193076285Y-91379523D01*
X192998876Y-91340819D01*
X192340895Y-91340819D01*
X192340895Y-91031180D02*
X192340895Y-90528019D01*
X192650533Y-90798952D01*
X192650533Y-90682838D01*
X192689238Y-90605428D01*
X192727942Y-90566723D01*
X192805352Y-90528019D01*
X192998876Y-90528019D01*
X193076285Y-90566723D01*
X193114990Y-90605428D01*
X193153695Y-90682838D01*
X193153695Y-90915066D01*
X193114990Y-90992476D01*
X193076285Y-91031180D01*
X194423695Y-94301733D02*
X193610895Y-94301733D01*
X194384990Y-93953390D02*
X194423695Y-93837276D01*
X194423695Y-93643752D01*
X194384990Y-93566342D01*
X194346285Y-93527638D01*
X194268876Y-93488933D01*
X194191466Y-93488933D01*
X194114057Y-93527638D01*
X194075352Y-93566342D01*
X194036647Y-93643752D01*
X193997942Y-93798571D01*
X193959238Y-93875980D01*
X193920533Y-93914685D01*
X193843123Y-93953390D01*
X193765714Y-93953390D01*
X193688304Y-93914685D01*
X193649600Y-93875980D01*
X193610895Y-93798571D01*
X193610895Y-93605047D01*
X193649600Y-93488933D01*
X193610895Y-92792247D02*
X193610895Y-92947066D01*
X193649600Y-93024476D01*
X193688304Y-93063180D01*
X193804419Y-93140590D01*
X193959238Y-93179295D01*
X194268876Y-93179295D01*
X194346285Y-93140590D01*
X194384990Y-93101885D01*
X194423695Y-93024476D01*
X194423695Y-92869657D01*
X194384990Y-92792247D01*
X194346285Y-92753542D01*
X194268876Y-92714838D01*
X194075352Y-92714838D01*
X193997942Y-92753542D01*
X193959238Y-92792247D01*
X193920533Y-92869657D01*
X193920533Y-93024476D01*
X193959238Y-93101885D01*
X193997942Y-93140590D01*
X194075352Y-93179295D01*
X193688304Y-92405200D02*
X193649600Y-92366495D01*
X193610895Y-92289085D01*
X193610895Y-92095561D01*
X193649600Y-92018152D01*
X193688304Y-91979447D01*
X193765714Y-91940742D01*
X193843123Y-91940742D01*
X193959238Y-91979447D01*
X194423695Y-92443904D01*
X194423695Y-91940742D01*
X194346285Y-91127942D02*
X194384990Y-91166647D01*
X194423695Y-91282761D01*
X194423695Y-91360171D01*
X194384990Y-91476285D01*
X194307580Y-91553695D01*
X194230171Y-91592400D01*
X194075352Y-91631104D01*
X193959238Y-91631104D01*
X193804419Y-91592400D01*
X193727009Y-91553695D01*
X193649600Y-91476285D01*
X193610895Y-91360171D01*
X193610895Y-91282761D01*
X193649600Y-91166647D01*
X193688304Y-91127942D01*
X194423695Y-90353847D02*
X194423695Y-90818304D01*
X194423695Y-90586076D02*
X193610895Y-90586076D01*
X193727009Y-90663485D01*
X193804419Y-90740895D01*
X193843123Y-90818304D01*
X193610895Y-89850685D02*
X193610895Y-89773276D01*
X193649600Y-89695866D01*
X193688304Y-89657161D01*
X193765714Y-89618457D01*
X193920533Y-89579752D01*
X194114057Y-89579752D01*
X194268876Y-89618457D01*
X194346285Y-89657161D01*
X194384990Y-89695866D01*
X194423695Y-89773276D01*
X194423695Y-89850685D01*
X194384990Y-89928095D01*
X194346285Y-89966800D01*
X194268876Y-90005504D01*
X194114057Y-90044209D01*
X193920533Y-90044209D01*
X193765714Y-90005504D01*
X193688304Y-89966800D01*
X193649600Y-89928095D01*
X193610895Y-89850685D01*
X193688304Y-89270114D02*
X193649600Y-89231409D01*
X193610895Y-89154000D01*
X193610895Y-88960476D01*
X193649600Y-88883066D01*
X193688304Y-88844361D01*
X193765714Y-88805657D01*
X193843123Y-88805657D01*
X193959238Y-88844361D01*
X194423695Y-89308819D01*
X194423695Y-88805657D01*
X193881828Y-88108971D02*
X194423695Y-88108971D01*
X193572190Y-88302495D02*
X194152761Y-88496019D01*
X194152761Y-87992857D01*
D11*
X166882380Y-117847785D02*
X166882380Y-118038261D01*
X166930000Y-118133500D01*
X166977619Y-118181119D01*
X167120476Y-118276357D01*
X167310952Y-118323976D01*
X167691904Y-118323976D01*
X167787142Y-118276357D01*
X167834761Y-118228738D01*
X167882380Y-118133500D01*
X167882380Y-117943023D01*
X167834761Y-117847785D01*
X167787142Y-117800166D01*
X167691904Y-117752547D01*
X167453809Y-117752547D01*
X167358571Y-117800166D01*
X167310952Y-117847785D01*
X167263333Y-117943023D01*
X167263333Y-118133500D01*
X167310952Y-118228738D01*
X167358571Y-118276357D01*
X167453809Y-118323976D01*
X167310952Y-117181119D02*
X167263333Y-117276357D01*
X167215714Y-117323976D01*
X167120476Y-117371595D01*
X167072857Y-117371595D01*
X166977619Y-117323976D01*
X166930000Y-117276357D01*
X166882380Y-117181119D01*
X166882380Y-116990642D01*
X166930000Y-116895404D01*
X166977619Y-116847785D01*
X167072857Y-116800166D01*
X167120476Y-116800166D01*
X167215714Y-116847785D01*
X167263333Y-116895404D01*
X167310952Y-116990642D01*
X167310952Y-117181119D01*
X167358571Y-117276357D01*
X167406190Y-117323976D01*
X167501428Y-117371595D01*
X167691904Y-117371595D01*
X167787142Y-117323976D01*
X167834761Y-117276357D01*
X167882380Y-117181119D01*
X167882380Y-116990642D01*
X167834761Y-116895404D01*
X167787142Y-116847785D01*
X167691904Y-116800166D01*
X167501428Y-116800166D01*
X167406190Y-116847785D01*
X167358571Y-116895404D01*
X167310952Y-116990642D01*
X166882380Y-116181119D02*
X166882380Y-116085880D01*
X166930000Y-115990642D01*
X166977619Y-115943023D01*
X167072857Y-115895404D01*
X167263333Y-115847785D01*
X167501428Y-115847785D01*
X167691904Y-115895404D01*
X167787142Y-115943023D01*
X167834761Y-115990642D01*
X167882380Y-116085880D01*
X167882380Y-116181119D01*
X167834761Y-116276357D01*
X167787142Y-116323976D01*
X167691904Y-116371595D01*
X167501428Y-116419214D01*
X167263333Y-116419214D01*
X167072857Y-116371595D01*
X166977619Y-116323976D01*
X166930000Y-116276357D01*
X166882380Y-116181119D01*
X166882380Y-115228738D02*
X166882380Y-115133500D01*
X166930000Y-115038261D01*
X166977619Y-114990642D01*
X167072857Y-114943023D01*
X167263333Y-114895404D01*
X167501428Y-114895404D01*
X167691904Y-114943023D01*
X167787142Y-114990642D01*
X167834761Y-115038261D01*
X167882380Y-115133500D01*
X167882380Y-115228738D01*
X167834761Y-115323976D01*
X167787142Y-115371595D01*
X167691904Y-115419214D01*
X167501428Y-115466833D01*
X167263333Y-115466833D01*
X167072857Y-115419214D01*
X166977619Y-115371595D01*
X166930000Y-115323976D01*
X166882380Y-115228738D01*
X166882380Y-114276357D02*
X166882380Y-114181119D01*
X166930000Y-114085880D01*
X166977619Y-114038261D01*
X167072857Y-113990642D01*
X167263333Y-113943023D01*
X167501428Y-113943023D01*
X167691904Y-113990642D01*
X167787142Y-114038261D01*
X167834761Y-114085880D01*
X167882380Y-114181119D01*
X167882380Y-114276357D01*
X167834761Y-114371595D01*
X167787142Y-114419214D01*
X167691904Y-114466833D01*
X167501428Y-114514452D01*
X167263333Y-114514452D01*
X167072857Y-114466833D01*
X166977619Y-114419214D01*
X166930000Y-114371595D01*
X166882380Y-114276357D01*
X167882380Y-113514452D02*
X166882380Y-113514452D01*
X166882380Y-113276357D01*
X166930000Y-113133500D01*
X167025238Y-113038261D01*
X167120476Y-112990642D01*
X167310952Y-112943023D01*
X167453809Y-112943023D01*
X167644285Y-112990642D01*
X167739523Y-113038261D01*
X167834761Y-113133500D01*
X167882380Y-113276357D01*
X167882380Y-113514452D01*
D13*
X169090714Y-113413285D02*
X169102809Y-113425380D01*
X169114904Y-113461666D01*
X169114904Y-113485857D01*
X169102809Y-113522142D01*
X169078619Y-113546333D01*
X169054428Y-113558428D01*
X169006047Y-113570523D01*
X168969761Y-113570523D01*
X168921380Y-113558428D01*
X168897190Y-113546333D01*
X168873000Y-113522142D01*
X168860904Y-113485857D01*
X168860904Y-113461666D01*
X168873000Y-113425380D01*
X168885095Y-113413285D01*
X169114904Y-113171380D02*
X169114904Y-113316523D01*
X169114904Y-113243952D02*
X168860904Y-113243952D01*
X168897190Y-113268142D01*
X168921380Y-113292333D01*
X168933476Y-113316523D01*
X168945571Y-112953666D02*
X169114904Y-112953666D01*
X168848809Y-113014142D02*
X169030238Y-113074619D01*
X169030238Y-112917380D01*
X168764904Y-113413285D02*
X168764904Y-113558428D01*
X168764904Y-113485857D02*
X168510904Y-113485857D01*
X168547190Y-113510047D01*
X168571380Y-113534238D01*
X168583476Y-113558428D01*
X168510904Y-113256047D02*
X168510904Y-113231857D01*
X168523000Y-113207666D01*
X168535095Y-113195571D01*
X168559285Y-113183476D01*
X168607666Y-113171380D01*
X168668142Y-113171380D01*
X168716523Y-113183476D01*
X168740714Y-113195571D01*
X168752809Y-113207666D01*
X168764904Y-113231857D01*
X168764904Y-113256047D01*
X168752809Y-113280238D01*
X168740714Y-113292333D01*
X168716523Y-113304428D01*
X168668142Y-113316523D01*
X168607666Y-113316523D01*
X168559285Y-113304428D01*
X168535095Y-113292333D01*
X168523000Y-113280238D01*
X168510904Y-113256047D01*
X168595571Y-112953666D02*
X168764904Y-112953666D01*
X168595571Y-113062523D02*
X168728619Y-113062523D01*
X168752809Y-113050428D01*
X168764904Y-113026238D01*
X168764904Y-112989952D01*
X168752809Y-112965761D01*
X168740714Y-112953666D01*
X130890714Y-113413285D02*
X130902809Y-113425380D01*
X130914904Y-113461666D01*
X130914904Y-113485857D01*
X130902809Y-113522142D01*
X130878619Y-113546333D01*
X130854428Y-113558428D01*
X130806047Y-113570523D01*
X130769761Y-113570523D01*
X130721380Y-113558428D01*
X130697190Y-113546333D01*
X130673000Y-113522142D01*
X130660904Y-113485857D01*
X130660904Y-113461666D01*
X130673000Y-113425380D01*
X130685095Y-113413285D01*
X130914904Y-113171380D02*
X130914904Y-113316523D01*
X130914904Y-113243952D02*
X130660904Y-113243952D01*
X130697190Y-113268142D01*
X130721380Y-113292333D01*
X130733476Y-113316523D01*
X130660904Y-113086714D02*
X130660904Y-112929476D01*
X130757666Y-113014142D01*
X130757666Y-112977857D01*
X130769761Y-112953666D01*
X130781857Y-112941571D01*
X130806047Y-112929476D01*
X130866523Y-112929476D01*
X130890714Y-112941571D01*
X130902809Y-112953666D01*
X130914904Y-112977857D01*
X130914904Y-113050428D01*
X130902809Y-113074619D01*
X130890714Y-113086714D01*
X130564904Y-113413285D02*
X130564904Y-113558428D01*
X130564904Y-113485857D02*
X130310904Y-113485857D01*
X130347190Y-113510047D01*
X130371380Y-113534238D01*
X130383476Y-113558428D01*
X130310904Y-113256047D02*
X130310904Y-113231857D01*
X130323000Y-113207666D01*
X130335095Y-113195571D01*
X130359285Y-113183476D01*
X130407666Y-113171380D01*
X130468142Y-113171380D01*
X130516523Y-113183476D01*
X130540714Y-113195571D01*
X130552809Y-113207666D01*
X130564904Y-113231857D01*
X130564904Y-113256047D01*
X130552809Y-113280238D01*
X130540714Y-113292333D01*
X130516523Y-113304428D01*
X130468142Y-113316523D01*
X130407666Y-113316523D01*
X130359285Y-113304428D01*
X130335095Y-113292333D01*
X130323000Y-113280238D01*
X130310904Y-113256047D01*
X130395571Y-112953666D02*
X130564904Y-112953666D01*
X130395571Y-113062523D02*
X130528619Y-113062523D01*
X130552809Y-113050428D01*
X130564904Y-113026238D01*
X130564904Y-112989952D01*
X130552809Y-112965761D01*
X130540714Y-112953666D01*
D11*
X186038095Y-150442380D02*
X186371428Y-151442380D01*
X186704761Y-150442380D01*
X187561904Y-150490000D02*
X187466666Y-150442380D01*
X187323809Y-150442380D01*
X187180952Y-150490000D01*
X187085714Y-150585238D01*
X187038095Y-150680476D01*
X186990476Y-150870952D01*
X186990476Y-151013809D01*
X187038095Y-151204285D01*
X187085714Y-151299523D01*
X187180952Y-151394761D01*
X187323809Y-151442380D01*
X187419047Y-151442380D01*
X187561904Y-151394761D01*
X187609523Y-151347142D01*
X187609523Y-151013809D01*
X187419047Y-151013809D01*
X187990476Y-151156666D02*
X188466666Y-151156666D01*
X187895238Y-151442380D02*
X188228571Y-150442380D01*
X188561904Y-151442380D01*
X186966666Y-145942380D02*
X186966666Y-146656666D01*
X186919047Y-146799523D01*
X186823809Y-146894761D01*
X186680952Y-146942380D01*
X186585714Y-146942380D01*
X187395238Y-146037619D02*
X187442857Y-145990000D01*
X187538095Y-145942380D01*
X187776190Y-145942380D01*
X187871428Y-145990000D01*
X187919047Y-146037619D01*
X187966666Y-146132857D01*
X187966666Y-146228095D01*
X187919047Y-146370952D01*
X187347619Y-146942380D01*
X187966666Y-146942380D01*
D12*
X208596895Y-131334933D02*
X209177466Y-131334933D01*
X209293580Y-131373638D01*
X209370990Y-131451047D01*
X209409695Y-131567161D01*
X209409695Y-131644571D01*
X208596895Y-131025295D02*
X208596895Y-130522133D01*
X208906533Y-130793066D01*
X208906533Y-130676952D01*
X208945238Y-130599542D01*
X208983942Y-130560838D01*
X209061352Y-130522133D01*
X209254876Y-130522133D01*
X209332285Y-130560838D01*
X209370990Y-130599542D01*
X209409695Y-130676952D01*
X209409695Y-130909180D01*
X209370990Y-130986590D01*
X209332285Y-131025295D01*
X208093733Y-119442895D02*
X208093733Y-120023466D01*
X208055028Y-120139580D01*
X207977619Y-120216990D01*
X207861504Y-120255695D01*
X207784095Y-120255695D01*
X208364666Y-119442895D02*
X208829123Y-119442895D01*
X208596895Y-120255695D02*
X208596895Y-119442895D01*
X209061352Y-120023466D02*
X209448400Y-120023466D01*
X208983942Y-120255695D02*
X209254876Y-119442895D01*
X209525809Y-120255695D01*
X210222495Y-119481600D02*
X210145085Y-119442895D01*
X210028971Y-119442895D01*
X209912857Y-119481600D01*
X209835447Y-119559009D01*
X209796742Y-119636419D01*
X209758038Y-119791238D01*
X209758038Y-119907352D01*
X209796742Y-120062171D01*
X209835447Y-120139580D01*
X209912857Y-120216990D01*
X210028971Y-120255695D01*
X210106380Y-120255695D01*
X210222495Y-120216990D01*
X210261200Y-120178285D01*
X210261200Y-119907352D01*
X210106380Y-119907352D01*
D13*
X181319714Y-68773833D02*
X181331809Y-68785928D01*
X181343904Y-68822214D01*
X181343904Y-68846404D01*
X181331809Y-68882690D01*
X181307619Y-68906880D01*
X181283428Y-68918976D01*
X181235047Y-68931071D01*
X181198761Y-68931071D01*
X181150380Y-68918976D01*
X181126190Y-68906880D01*
X181102000Y-68882690D01*
X181089904Y-68846404D01*
X181089904Y-68822214D01*
X181102000Y-68785928D01*
X181114095Y-68773833D01*
X181089904Y-68689166D02*
X181089904Y-68531928D01*
X181186666Y-68616595D01*
X181186666Y-68580309D01*
X181198761Y-68556119D01*
X181210857Y-68544023D01*
X181235047Y-68531928D01*
X181295523Y-68531928D01*
X181319714Y-68544023D01*
X181331809Y-68556119D01*
X181343904Y-68580309D01*
X181343904Y-68652880D01*
X181331809Y-68677071D01*
X181319714Y-68689166D01*
X180993904Y-68894785D02*
X180993904Y-69039928D01*
X180993904Y-68967357D02*
X180739904Y-68967357D01*
X180776190Y-68991547D01*
X180800380Y-69015738D01*
X180812476Y-69039928D01*
X180739904Y-68737547D02*
X180739904Y-68713357D01*
X180752000Y-68689166D01*
X180764095Y-68677071D01*
X180788285Y-68664976D01*
X180836666Y-68652880D01*
X180897142Y-68652880D01*
X180945523Y-68664976D01*
X180969714Y-68677071D01*
X180981809Y-68689166D01*
X180993904Y-68713357D01*
X180993904Y-68737547D01*
X180981809Y-68761738D01*
X180969714Y-68773833D01*
X180945523Y-68785928D01*
X180897142Y-68798023D01*
X180836666Y-68798023D01*
X180788285Y-68785928D01*
X180764095Y-68773833D01*
X180752000Y-68761738D01*
X180739904Y-68737547D01*
X180824571Y-68435166D02*
X180993904Y-68435166D01*
X180824571Y-68544023D02*
X180957619Y-68544023D01*
X180981809Y-68531928D01*
X180993904Y-68507738D01*
X180993904Y-68471452D01*
X180981809Y-68447261D01*
X180969714Y-68435166D01*
X195307666Y-102840714D02*
X195295571Y-102852809D01*
X195259285Y-102864904D01*
X195235095Y-102864904D01*
X195198809Y-102852809D01*
X195174619Y-102828619D01*
X195162523Y-102804428D01*
X195150428Y-102756047D01*
X195150428Y-102719761D01*
X195162523Y-102671380D01*
X195174619Y-102647190D01*
X195198809Y-102623000D01*
X195235095Y-102610904D01*
X195259285Y-102610904D01*
X195295571Y-102623000D01*
X195307666Y-102635095D01*
X195525380Y-102610904D02*
X195477000Y-102610904D01*
X195452809Y-102623000D01*
X195440714Y-102635095D01*
X195416523Y-102671380D01*
X195404428Y-102719761D01*
X195404428Y-102816523D01*
X195416523Y-102840714D01*
X195428619Y-102852809D01*
X195452809Y-102864904D01*
X195501190Y-102864904D01*
X195525380Y-102852809D01*
X195537476Y-102840714D01*
X195549571Y-102816523D01*
X195549571Y-102756047D01*
X195537476Y-102731857D01*
X195525380Y-102719761D01*
X195501190Y-102707666D01*
X195452809Y-102707666D01*
X195428619Y-102719761D01*
X195416523Y-102731857D01*
X195404428Y-102756047D01*
D14*
X195195785Y-102942547D02*
X195201833Y-102936500D01*
X195213928Y-102930452D01*
X195244166Y-102930452D01*
X195256261Y-102936500D01*
X195262309Y-102942547D01*
X195268357Y-102954642D01*
X195268357Y-102966738D01*
X195262309Y-102984880D01*
X195189738Y-103057452D01*
X195268357Y-103057452D01*
X195377214Y-102972785D02*
X195377214Y-103057452D01*
X195322785Y-102972785D02*
X195322785Y-103039309D01*
X195328833Y-103051404D01*
X195340928Y-103057452D01*
X195359071Y-103057452D01*
X195371166Y-103051404D01*
X195377214Y-103045357D01*
X195431642Y-102942547D02*
X195437690Y-102936500D01*
X195449785Y-102930452D01*
X195480023Y-102930452D01*
X195492119Y-102936500D01*
X195498166Y-102942547D01*
X195504214Y-102954642D01*
X195504214Y-102966738D01*
X195498166Y-102984880D01*
X195425595Y-103057452D01*
X195504214Y-103057452D01*
D13*
X181319714Y-85537833D02*
X181331809Y-85549928D01*
X181343904Y-85586214D01*
X181343904Y-85610404D01*
X181331809Y-85646690D01*
X181307619Y-85670880D01*
X181283428Y-85682976D01*
X181235047Y-85695071D01*
X181198761Y-85695071D01*
X181150380Y-85682976D01*
X181126190Y-85670880D01*
X181102000Y-85646690D01*
X181089904Y-85610404D01*
X181089904Y-85586214D01*
X181102000Y-85549928D01*
X181114095Y-85537833D01*
X181174571Y-85320119D02*
X181343904Y-85320119D01*
X181077809Y-85380595D02*
X181259238Y-85441071D01*
X181259238Y-85283833D01*
X180993904Y-85658785D02*
X180993904Y-85803928D01*
X180993904Y-85731357D02*
X180739904Y-85731357D01*
X180776190Y-85755547D01*
X180800380Y-85779738D01*
X180812476Y-85803928D01*
X180739904Y-85501547D02*
X180739904Y-85477357D01*
X180752000Y-85453166D01*
X180764095Y-85441071D01*
X180788285Y-85428976D01*
X180836666Y-85416880D01*
X180897142Y-85416880D01*
X180945523Y-85428976D01*
X180969714Y-85441071D01*
X180981809Y-85453166D01*
X180993904Y-85477357D01*
X180993904Y-85501547D01*
X180981809Y-85525738D01*
X180969714Y-85537833D01*
X180945523Y-85549928D01*
X180897142Y-85562023D01*
X180836666Y-85562023D01*
X180788285Y-85549928D01*
X180764095Y-85537833D01*
X180752000Y-85525738D01*
X180739904Y-85501547D01*
X180824571Y-85199166D02*
X180993904Y-85199166D01*
X180824571Y-85308023D02*
X180957619Y-85308023D01*
X180981809Y-85295928D01*
X180993904Y-85271738D01*
X180993904Y-85235452D01*
X180981809Y-85211261D01*
X180969714Y-85199166D01*
X177307666Y-128440714D02*
X177295571Y-128452809D01*
X177259285Y-128464904D01*
X177235095Y-128464904D01*
X177198809Y-128452809D01*
X177174619Y-128428619D01*
X177162523Y-128404428D01*
X177150428Y-128356047D01*
X177150428Y-128319761D01*
X177162523Y-128271380D01*
X177174619Y-128247190D01*
X177198809Y-128223000D01*
X177235095Y-128210904D01*
X177259285Y-128210904D01*
X177295571Y-128223000D01*
X177307666Y-128235095D01*
X177452809Y-128319761D02*
X177428619Y-128307666D01*
X177416523Y-128295571D01*
X177404428Y-128271380D01*
X177404428Y-128259285D01*
X177416523Y-128235095D01*
X177428619Y-128223000D01*
X177452809Y-128210904D01*
X177501190Y-128210904D01*
X177525380Y-128223000D01*
X177537476Y-128235095D01*
X177549571Y-128259285D01*
X177549571Y-128271380D01*
X177537476Y-128295571D01*
X177525380Y-128307666D01*
X177501190Y-128319761D01*
X177452809Y-128319761D01*
X177428619Y-128331857D01*
X177416523Y-128343952D01*
X177404428Y-128368142D01*
X177404428Y-128416523D01*
X177416523Y-128440714D01*
X177428619Y-128452809D01*
X177452809Y-128464904D01*
X177501190Y-128464904D01*
X177525380Y-128452809D01*
X177537476Y-128440714D01*
X177549571Y-128416523D01*
X177549571Y-128368142D01*
X177537476Y-128343952D01*
X177525380Y-128331857D01*
X177501190Y-128319761D01*
D14*
X177195785Y-128042547D02*
X177201833Y-128036500D01*
X177213928Y-128030452D01*
X177244166Y-128030452D01*
X177256261Y-128036500D01*
X177262309Y-128042547D01*
X177268357Y-128054642D01*
X177268357Y-128066738D01*
X177262309Y-128084880D01*
X177189738Y-128157452D01*
X177268357Y-128157452D01*
X177377214Y-128072785D02*
X177377214Y-128157452D01*
X177322785Y-128072785D02*
X177322785Y-128139309D01*
X177328833Y-128151404D01*
X177340928Y-128157452D01*
X177359071Y-128157452D01*
X177371166Y-128151404D01*
X177377214Y-128145357D01*
X177431642Y-128042547D02*
X177437690Y-128036500D01*
X177449785Y-128030452D01*
X177480023Y-128030452D01*
X177492119Y-128036500D01*
X177498166Y-128042547D01*
X177504214Y-128054642D01*
X177504214Y-128066738D01*
X177498166Y-128084880D01*
X177425595Y-128157452D01*
X177504214Y-128157452D01*
D13*
X177307666Y-102840714D02*
X177295571Y-102852809D01*
X177259285Y-102864904D01*
X177235095Y-102864904D01*
X177198809Y-102852809D01*
X177174619Y-102828619D01*
X177162523Y-102804428D01*
X177150428Y-102756047D01*
X177150428Y-102719761D01*
X177162523Y-102671380D01*
X177174619Y-102647190D01*
X177198809Y-102623000D01*
X177235095Y-102610904D01*
X177259285Y-102610904D01*
X177295571Y-102623000D01*
X177307666Y-102635095D01*
X177392333Y-102610904D02*
X177561666Y-102610904D01*
X177452809Y-102864904D01*
D14*
X177195785Y-102442547D02*
X177201833Y-102436500D01*
X177213928Y-102430452D01*
X177244166Y-102430452D01*
X177256261Y-102436500D01*
X177262309Y-102442547D01*
X177268357Y-102454642D01*
X177268357Y-102466738D01*
X177262309Y-102484880D01*
X177189738Y-102557452D01*
X177268357Y-102557452D01*
X177377214Y-102472785D02*
X177377214Y-102557452D01*
X177322785Y-102472785D02*
X177322785Y-102539309D01*
X177328833Y-102551404D01*
X177340928Y-102557452D01*
X177359071Y-102557452D01*
X177371166Y-102551404D01*
X177377214Y-102545357D01*
X177431642Y-102442547D02*
X177437690Y-102436500D01*
X177449785Y-102430452D01*
X177480023Y-102430452D01*
X177492119Y-102436500D01*
X177498166Y-102442547D01*
X177504214Y-102454642D01*
X177504214Y-102466738D01*
X177498166Y-102484880D01*
X177425595Y-102557452D01*
X177504214Y-102557452D01*
D13*
X173690714Y-115592333D02*
X173702809Y-115604428D01*
X173714904Y-115640714D01*
X173714904Y-115664904D01*
X173702809Y-115701190D01*
X173678619Y-115725380D01*
X173654428Y-115737476D01*
X173606047Y-115749571D01*
X173569761Y-115749571D01*
X173521380Y-115737476D01*
X173497190Y-115725380D01*
X173473000Y-115701190D01*
X173460904Y-115664904D01*
X173460904Y-115640714D01*
X173473000Y-115604428D01*
X173485095Y-115592333D01*
X173460904Y-115362523D02*
X173460904Y-115483476D01*
X173581857Y-115495571D01*
X173569761Y-115483476D01*
X173557666Y-115459285D01*
X173557666Y-115398809D01*
X173569761Y-115374619D01*
X173581857Y-115362523D01*
X173606047Y-115350428D01*
X173666523Y-115350428D01*
X173690714Y-115362523D01*
X173702809Y-115374619D01*
X173714904Y-115398809D01*
X173714904Y-115459285D01*
X173702809Y-115483476D01*
X173690714Y-115495571D01*
D14*
X173292547Y-115704214D02*
X173286500Y-115698166D01*
X173280452Y-115686071D01*
X173280452Y-115655833D01*
X173286500Y-115643738D01*
X173292547Y-115637690D01*
X173304642Y-115631642D01*
X173316738Y-115631642D01*
X173334880Y-115637690D01*
X173407452Y-115710261D01*
X173407452Y-115631642D01*
X173322785Y-115522785D02*
X173407452Y-115522785D01*
X173322785Y-115577214D02*
X173389309Y-115577214D01*
X173401404Y-115571166D01*
X173407452Y-115559071D01*
X173407452Y-115540928D01*
X173401404Y-115528833D01*
X173395357Y-115522785D01*
X173292547Y-115468357D02*
X173286500Y-115462309D01*
X173280452Y-115450214D01*
X173280452Y-115419976D01*
X173286500Y-115407880D01*
X173292547Y-115401833D01*
X173304642Y-115395785D01*
X173316738Y-115395785D01*
X173334880Y-115401833D01*
X173407452Y-115474404D01*
X173407452Y-115395785D01*
D13*
X125267666Y-107151714D02*
X125255571Y-107163809D01*
X125219285Y-107175904D01*
X125195095Y-107175904D01*
X125158809Y-107163809D01*
X125134619Y-107139619D01*
X125122523Y-107115428D01*
X125110428Y-107067047D01*
X125110428Y-107030761D01*
X125122523Y-106982380D01*
X125134619Y-106958190D01*
X125158809Y-106934000D01*
X125195095Y-106921904D01*
X125219285Y-106921904D01*
X125255571Y-106934000D01*
X125267666Y-106946095D01*
X125509571Y-107175904D02*
X125364428Y-107175904D01*
X125437000Y-107175904D02*
X125437000Y-106921904D01*
X125412809Y-106958190D01*
X125388619Y-106982380D01*
X125364428Y-106994476D01*
X125146714Y-107525904D02*
X125001571Y-107525904D01*
X125074142Y-107525904D02*
X125074142Y-107271904D01*
X125049952Y-107308190D01*
X125025761Y-107332380D01*
X125001571Y-107344476D01*
X125303952Y-107271904D02*
X125328142Y-107271904D01*
X125352333Y-107284000D01*
X125364428Y-107296095D01*
X125376523Y-107320285D01*
X125388619Y-107368666D01*
X125388619Y-107429142D01*
X125376523Y-107477523D01*
X125364428Y-107501714D01*
X125352333Y-107513809D01*
X125328142Y-107525904D01*
X125303952Y-107525904D01*
X125279761Y-107513809D01*
X125267666Y-107501714D01*
X125255571Y-107477523D01*
X125243476Y-107429142D01*
X125243476Y-107368666D01*
X125255571Y-107320285D01*
X125267666Y-107296095D01*
X125279761Y-107284000D01*
X125303952Y-107271904D01*
X125606333Y-107356571D02*
X125606333Y-107525904D01*
X125497476Y-107356571D02*
X125497476Y-107489619D01*
X125509571Y-107513809D01*
X125533761Y-107525904D01*
X125570047Y-107525904D01*
X125594238Y-107513809D01*
X125606333Y-107501714D01*
X127540714Y-115442333D02*
X127552809Y-115454428D01*
X127564904Y-115490714D01*
X127564904Y-115514904D01*
X127552809Y-115551190D01*
X127528619Y-115575380D01*
X127504428Y-115587476D01*
X127456047Y-115599571D01*
X127419761Y-115599571D01*
X127371380Y-115587476D01*
X127347190Y-115575380D01*
X127323000Y-115551190D01*
X127310904Y-115514904D01*
X127310904Y-115490714D01*
X127323000Y-115454428D01*
X127335095Y-115442333D01*
X127335095Y-115345571D02*
X127323000Y-115333476D01*
X127310904Y-115309285D01*
X127310904Y-115248809D01*
X127323000Y-115224619D01*
X127335095Y-115212523D01*
X127359285Y-115200428D01*
X127383476Y-115200428D01*
X127419761Y-115212523D01*
X127564904Y-115357666D01*
X127564904Y-115200428D01*
X127214904Y-115563285D02*
X127214904Y-115708428D01*
X127214904Y-115635857D02*
X126960904Y-115635857D01*
X126997190Y-115660047D01*
X127021380Y-115684238D01*
X127033476Y-115708428D01*
X126960904Y-115406047D02*
X126960904Y-115381857D01*
X126973000Y-115357666D01*
X126985095Y-115345571D01*
X127009285Y-115333476D01*
X127057666Y-115321380D01*
X127118142Y-115321380D01*
X127166523Y-115333476D01*
X127190714Y-115345571D01*
X127202809Y-115357666D01*
X127214904Y-115381857D01*
X127214904Y-115406047D01*
X127202809Y-115430238D01*
X127190714Y-115442333D01*
X127166523Y-115454428D01*
X127118142Y-115466523D01*
X127057666Y-115466523D01*
X127009285Y-115454428D01*
X126985095Y-115442333D01*
X126973000Y-115430238D01*
X126960904Y-115406047D01*
X127045571Y-115103666D02*
X127214904Y-115103666D01*
X127045571Y-115212523D02*
X127178619Y-115212523D01*
X127202809Y-115200428D01*
X127214904Y-115176238D01*
X127214904Y-115139952D01*
X127202809Y-115115761D01*
X127190714Y-115103666D01*
X199190714Y-115592333D02*
X199202809Y-115604428D01*
X199214904Y-115640714D01*
X199214904Y-115664904D01*
X199202809Y-115701190D01*
X199178619Y-115725380D01*
X199154428Y-115737476D01*
X199106047Y-115749571D01*
X199069761Y-115749571D01*
X199021380Y-115737476D01*
X198997190Y-115725380D01*
X198973000Y-115701190D01*
X198960904Y-115664904D01*
X198960904Y-115640714D01*
X198973000Y-115604428D01*
X198985095Y-115592333D01*
X199214904Y-115471380D02*
X199214904Y-115423000D01*
X199202809Y-115398809D01*
X199190714Y-115386714D01*
X199154428Y-115362523D01*
X199106047Y-115350428D01*
X199009285Y-115350428D01*
X198985095Y-115362523D01*
X198973000Y-115374619D01*
X198960904Y-115398809D01*
X198960904Y-115447190D01*
X198973000Y-115471380D01*
X198985095Y-115483476D01*
X199009285Y-115495571D01*
X199069761Y-115495571D01*
X199093952Y-115483476D01*
X199106047Y-115471380D01*
X199118142Y-115447190D01*
X199118142Y-115398809D01*
X199106047Y-115374619D01*
X199093952Y-115362523D01*
X199069761Y-115350428D01*
D14*
X199292547Y-115704214D02*
X199286500Y-115698166D01*
X199280452Y-115686071D01*
X199280452Y-115655833D01*
X199286500Y-115643738D01*
X199292547Y-115637690D01*
X199304642Y-115631642D01*
X199316738Y-115631642D01*
X199334880Y-115637690D01*
X199407452Y-115710261D01*
X199407452Y-115631642D01*
X199322785Y-115522785D02*
X199407452Y-115522785D01*
X199322785Y-115577214D02*
X199389309Y-115577214D01*
X199401404Y-115571166D01*
X199407452Y-115559071D01*
X199407452Y-115540928D01*
X199401404Y-115528833D01*
X199395357Y-115522785D01*
X199292547Y-115468357D02*
X199286500Y-115462309D01*
X199280452Y-115450214D01*
X199280452Y-115419976D01*
X199286500Y-115407880D01*
X199292547Y-115401833D01*
X199304642Y-115395785D01*
X199316738Y-115395785D01*
X199334880Y-115401833D01*
X199407452Y-115474404D01*
X199407452Y-115395785D01*
D13*
X195186714Y-128440714D02*
X195174619Y-128452809D01*
X195138333Y-128464904D01*
X195114142Y-128464904D01*
X195077857Y-128452809D01*
X195053666Y-128428619D01*
X195041571Y-128404428D01*
X195029476Y-128356047D01*
X195029476Y-128319761D01*
X195041571Y-128271380D01*
X195053666Y-128247190D01*
X195077857Y-128223000D01*
X195114142Y-128210904D01*
X195138333Y-128210904D01*
X195174619Y-128223000D01*
X195186714Y-128235095D01*
X195428619Y-128464904D02*
X195283476Y-128464904D01*
X195356047Y-128464904D02*
X195356047Y-128210904D01*
X195331857Y-128247190D01*
X195307666Y-128271380D01*
X195283476Y-128283476D01*
X195585857Y-128210904D02*
X195610047Y-128210904D01*
X195634238Y-128223000D01*
X195646333Y-128235095D01*
X195658428Y-128259285D01*
X195670523Y-128307666D01*
X195670523Y-128368142D01*
X195658428Y-128416523D01*
X195646333Y-128440714D01*
X195634238Y-128452809D01*
X195610047Y-128464904D01*
X195585857Y-128464904D01*
X195561666Y-128452809D01*
X195549571Y-128440714D01*
X195537476Y-128416523D01*
X195525380Y-128368142D01*
X195525380Y-128307666D01*
X195537476Y-128259285D01*
X195549571Y-128235095D01*
X195561666Y-128223000D01*
X195585857Y-128210904D01*
D14*
X195195785Y-128542547D02*
X195201833Y-128536500D01*
X195213928Y-128530452D01*
X195244166Y-128530452D01*
X195256261Y-128536500D01*
X195262309Y-128542547D01*
X195268357Y-128554642D01*
X195268357Y-128566738D01*
X195262309Y-128584880D01*
X195189738Y-128657452D01*
X195268357Y-128657452D01*
X195377214Y-128572785D02*
X195377214Y-128657452D01*
X195322785Y-128572785D02*
X195322785Y-128639309D01*
X195328833Y-128651404D01*
X195340928Y-128657452D01*
X195359071Y-128657452D01*
X195371166Y-128651404D01*
X195377214Y-128645357D01*
X195431642Y-128542547D02*
X195437690Y-128536500D01*
X195449785Y-128530452D01*
X195480023Y-128530452D01*
X195492119Y-128536500D01*
X195498166Y-128542547D01*
X195504214Y-128554642D01*
X195504214Y-128566738D01*
X195498166Y-128584880D01*
X195425595Y-128657452D01*
X195504214Y-128657452D01*
D13*
X186186714Y-128840714D02*
X186174619Y-128852809D01*
X186138333Y-128864904D01*
X186114142Y-128864904D01*
X186077857Y-128852809D01*
X186053666Y-128828619D01*
X186041571Y-128804428D01*
X186029476Y-128756047D01*
X186029476Y-128719761D01*
X186041571Y-128671380D01*
X186053666Y-128647190D01*
X186077857Y-128623000D01*
X186114142Y-128610904D01*
X186138333Y-128610904D01*
X186174619Y-128623000D01*
X186186714Y-128635095D01*
X186428619Y-128864904D02*
X186283476Y-128864904D01*
X186356047Y-128864904D02*
X186356047Y-128610904D01*
X186331857Y-128647190D01*
X186307666Y-128671380D01*
X186283476Y-128683476D01*
X186670523Y-128864904D02*
X186525380Y-128864904D01*
X186597952Y-128864904D02*
X186597952Y-128610904D01*
X186573761Y-128647190D01*
X186549571Y-128671380D01*
X186525380Y-128683476D01*
D14*
X186195785Y-128942547D02*
X186201833Y-128936500D01*
X186213928Y-128930452D01*
X186244166Y-128930452D01*
X186256261Y-128936500D01*
X186262309Y-128942547D01*
X186268357Y-128954642D01*
X186268357Y-128966738D01*
X186262309Y-128984880D01*
X186189738Y-129057452D01*
X186268357Y-129057452D01*
X186377214Y-128972785D02*
X186377214Y-129057452D01*
X186322785Y-128972785D02*
X186322785Y-129039309D01*
X186328833Y-129051404D01*
X186340928Y-129057452D01*
X186359071Y-129057452D01*
X186371166Y-129051404D01*
X186377214Y-129045357D01*
X186431642Y-128942547D02*
X186437690Y-128936500D01*
X186449785Y-128930452D01*
X186480023Y-128930452D01*
X186492119Y-128936500D01*
X186498166Y-128942547D01*
X186504214Y-128954642D01*
X186504214Y-128966738D01*
X186498166Y-128984880D01*
X186425595Y-129057452D01*
X186504214Y-129057452D01*
D13*
X186186714Y-102440714D02*
X186174619Y-102452809D01*
X186138333Y-102464904D01*
X186114142Y-102464904D01*
X186077857Y-102452809D01*
X186053666Y-102428619D01*
X186041571Y-102404428D01*
X186029476Y-102356047D01*
X186029476Y-102319761D01*
X186041571Y-102271380D01*
X186053666Y-102247190D01*
X186077857Y-102223000D01*
X186114142Y-102210904D01*
X186138333Y-102210904D01*
X186174619Y-102223000D01*
X186186714Y-102235095D01*
X186428619Y-102464904D02*
X186283476Y-102464904D01*
X186356047Y-102464904D02*
X186356047Y-102210904D01*
X186331857Y-102247190D01*
X186307666Y-102271380D01*
X186283476Y-102283476D01*
X186525380Y-102235095D02*
X186537476Y-102223000D01*
X186561666Y-102210904D01*
X186622142Y-102210904D01*
X186646333Y-102223000D01*
X186658428Y-102235095D01*
X186670523Y-102259285D01*
X186670523Y-102283476D01*
X186658428Y-102319761D01*
X186513285Y-102464904D01*
X186670523Y-102464904D01*
D14*
X186195785Y-102042547D02*
X186201833Y-102036500D01*
X186213928Y-102030452D01*
X186244166Y-102030452D01*
X186256261Y-102036500D01*
X186262309Y-102042547D01*
X186268357Y-102054642D01*
X186268357Y-102066738D01*
X186262309Y-102084880D01*
X186189738Y-102157452D01*
X186268357Y-102157452D01*
X186377214Y-102072785D02*
X186377214Y-102157452D01*
X186322785Y-102072785D02*
X186322785Y-102139309D01*
X186328833Y-102151404D01*
X186340928Y-102157452D01*
X186359071Y-102157452D01*
X186371166Y-102151404D01*
X186377214Y-102145357D01*
X186431642Y-102042547D02*
X186437690Y-102036500D01*
X186449785Y-102030452D01*
X186480023Y-102030452D01*
X186492119Y-102036500D01*
X186498166Y-102042547D01*
X186504214Y-102054642D01*
X186504214Y-102066738D01*
X186498166Y-102084880D01*
X186425595Y-102157452D01*
X186504214Y-102157452D01*
D12*
X185730723Y-115104895D02*
X185730723Y-115762876D01*
X185769428Y-115840285D01*
X185808133Y-115878990D01*
X185885542Y-115917695D01*
X186040361Y-115917695D01*
X186117771Y-115878990D01*
X186156476Y-115840285D01*
X186195180Y-115762876D01*
X186195180Y-115104895D01*
X187007980Y-115917695D02*
X186543523Y-115917695D01*
X186775752Y-115917695D02*
X186775752Y-115104895D01*
X186698342Y-115221009D01*
X186620933Y-115298419D01*
X186543523Y-115337123D01*
X179305733Y-117167695D02*
X179305733Y-116354895D01*
X179576666Y-116935466D01*
X179847600Y-116354895D01*
X179847600Y-117167695D01*
X180621695Y-116354895D02*
X180234647Y-116354895D01*
X180195942Y-116741942D01*
X180234647Y-116703238D01*
X180312057Y-116664533D01*
X180505580Y-116664533D01*
X180582990Y-116703238D01*
X180621695Y-116741942D01*
X180660400Y-116819352D01*
X180660400Y-117012876D01*
X180621695Y-117090285D01*
X180582990Y-117128990D01*
X180505580Y-117167695D01*
X180312057Y-117167695D01*
X180234647Y-117128990D01*
X180195942Y-117090285D01*
X181395790Y-117167695D02*
X181008742Y-117167695D01*
X181008742Y-116354895D01*
X181550609Y-116354895D02*
X181821542Y-117167695D01*
X182092476Y-116354895D01*
X182363409Y-116858057D02*
X182982685Y-116858057D01*
X183331028Y-116432304D02*
X183369733Y-116393600D01*
X183447142Y-116354895D01*
X183640666Y-116354895D01*
X183718076Y-116393600D01*
X183756780Y-116432304D01*
X183795485Y-116509714D01*
X183795485Y-116587123D01*
X183756780Y-116703238D01*
X183292323Y-117167695D01*
X183795485Y-117167695D01*
X184530876Y-116354895D02*
X184143828Y-116354895D01*
X184105123Y-116741942D01*
X184143828Y-116703238D01*
X184221238Y-116664533D01*
X184414761Y-116664533D01*
X184492171Y-116703238D01*
X184530876Y-116741942D01*
X184569580Y-116819352D01*
X184569580Y-117012876D01*
X184530876Y-117090285D01*
X184492171Y-117128990D01*
X184414761Y-117167695D01*
X184221238Y-117167695D01*
X184143828Y-117128990D01*
X184105123Y-117090285D01*
X185266266Y-116354895D02*
X185111447Y-116354895D01*
X185034038Y-116393600D01*
X184995333Y-116432304D01*
X184917923Y-116548419D01*
X184879219Y-116703238D01*
X184879219Y-117012876D01*
X184917923Y-117090285D01*
X184956628Y-117128990D01*
X185034038Y-117167695D01*
X185188857Y-117167695D01*
X185266266Y-117128990D01*
X185304971Y-117090285D01*
X185343676Y-117012876D01*
X185343676Y-116819352D01*
X185304971Y-116741942D01*
X185266266Y-116703238D01*
X185188857Y-116664533D01*
X185034038Y-116664533D01*
X184956628Y-116703238D01*
X184917923Y-116741942D01*
X184879219Y-116819352D01*
X186272590Y-116316190D02*
X185575904Y-117361219D01*
X186969276Y-117167695D02*
X186504819Y-117167695D01*
X186737047Y-117167695D02*
X186737047Y-116354895D01*
X186659638Y-116471009D01*
X186582228Y-116548419D01*
X186504819Y-116587123D01*
X187472438Y-116354895D02*
X187549847Y-116354895D01*
X187627257Y-116393600D01*
X187665961Y-116432304D01*
X187704666Y-116509714D01*
X187743371Y-116664533D01*
X187743371Y-116858057D01*
X187704666Y-117012876D01*
X187665961Y-117090285D01*
X187627257Y-117128990D01*
X187549847Y-117167695D01*
X187472438Y-117167695D01*
X187395028Y-117128990D01*
X187356323Y-117090285D01*
X187317619Y-117012876D01*
X187278914Y-116858057D01*
X187278914Y-116664533D01*
X187317619Y-116509714D01*
X187356323Y-116432304D01*
X187395028Y-116393600D01*
X187472438Y-116354895D01*
X188440057Y-116625828D02*
X188440057Y-117167695D01*
X188246533Y-116316190D02*
X188053009Y-116896761D01*
X188556171Y-116896761D01*
X188865809Y-116858057D02*
X189485085Y-116858057D01*
X190297885Y-117167695D02*
X189833428Y-117167695D01*
X190065657Y-117167695D02*
X190065657Y-116354895D01*
X189988247Y-116471009D01*
X189910838Y-116548419D01*
X189833428Y-116587123D01*
X190801047Y-116354895D02*
X190878457Y-116354895D01*
X190955866Y-116393600D01*
X190994571Y-116432304D01*
X191033276Y-116509714D01*
X191071980Y-116664533D01*
X191071980Y-116858057D01*
X191033276Y-117012876D01*
X190994571Y-117090285D01*
X190955866Y-117128990D01*
X190878457Y-117167695D01*
X190801047Y-117167695D01*
X190723638Y-117128990D01*
X190684933Y-117090285D01*
X190646228Y-117012876D01*
X190607523Y-116858057D01*
X190607523Y-116664533D01*
X190646228Y-116509714D01*
X190684933Y-116432304D01*
X190723638Y-116393600D01*
X190801047Y-116354895D01*
X191304209Y-116354895D02*
X191575142Y-117167695D01*
X191846076Y-116354895D01*
X192117009Y-117167695D02*
X192117009Y-116354895D01*
X192581466Y-117167695D01*
X192581466Y-116354895D01*
X193432971Y-117090285D02*
X193394266Y-117128990D01*
X193278152Y-117167695D01*
X193200742Y-117167695D01*
X193084628Y-117128990D01*
X193007219Y-117051580D01*
X192968514Y-116974171D01*
X192929809Y-116819352D01*
X192929809Y-116703238D01*
X192968514Y-116548419D01*
X193007219Y-116471009D01*
X193084628Y-116393600D01*
X193200742Y-116354895D01*
X193278152Y-116354895D01*
X193394266Y-116393600D01*
X193432971Y-116432304D01*
D13*
X191714904Y-131842333D02*
X191593952Y-131927000D01*
X191714904Y-131987476D02*
X191460904Y-131987476D01*
X191460904Y-131890714D01*
X191473000Y-131866523D01*
X191485095Y-131854428D01*
X191509285Y-131842333D01*
X191545571Y-131842333D01*
X191569761Y-131854428D01*
X191581857Y-131866523D01*
X191593952Y-131890714D01*
X191593952Y-131987476D01*
X191714904Y-131600428D02*
X191714904Y-131745571D01*
X191714904Y-131673000D02*
X191460904Y-131673000D01*
X191497190Y-131697190D01*
X191521380Y-131721380D01*
X191533476Y-131745571D01*
X191835095Y-132114476D02*
X191823000Y-132102380D01*
X191810904Y-132078190D01*
X191810904Y-132017714D01*
X191823000Y-131993523D01*
X191835095Y-131981428D01*
X191859285Y-131969333D01*
X191883476Y-131969333D01*
X191919761Y-131981428D01*
X192064904Y-132126571D01*
X192064904Y-131969333D01*
X191810904Y-131884666D02*
X191810904Y-131715333D01*
X192064904Y-131824190D01*
X191810904Y-131570190D02*
X191810904Y-131546000D01*
X191823000Y-131521809D01*
X191835095Y-131509714D01*
X191859285Y-131497619D01*
X191907666Y-131485523D01*
X191968142Y-131485523D01*
X192016523Y-131497619D01*
X192040714Y-131509714D01*
X192052809Y-131521809D01*
X192064904Y-131546000D01*
X192064904Y-131570190D01*
X192052809Y-131594380D01*
X192040714Y-131606476D01*
X192016523Y-131618571D01*
X191968142Y-131630666D01*
X191907666Y-131630666D01*
X191859285Y-131618571D01*
X191835095Y-131606476D01*
X191823000Y-131594380D01*
X191810904Y-131570190D01*
X189714904Y-131842333D02*
X189593952Y-131927000D01*
X189714904Y-131987476D02*
X189460904Y-131987476D01*
X189460904Y-131890714D01*
X189473000Y-131866523D01*
X189485095Y-131854428D01*
X189509285Y-131842333D01*
X189545571Y-131842333D01*
X189569761Y-131854428D01*
X189581857Y-131866523D01*
X189593952Y-131890714D01*
X189593952Y-131987476D01*
X189485095Y-131745571D02*
X189473000Y-131733476D01*
X189460904Y-131709285D01*
X189460904Y-131648809D01*
X189473000Y-131624619D01*
X189485095Y-131612523D01*
X189509285Y-131600428D01*
X189533476Y-131600428D01*
X189569761Y-131612523D01*
X189714904Y-131757666D01*
X189714904Y-131600428D01*
X189835095Y-132114476D02*
X189823000Y-132102380D01*
X189810904Y-132078190D01*
X189810904Y-132017714D01*
X189823000Y-131993523D01*
X189835095Y-131981428D01*
X189859285Y-131969333D01*
X189883476Y-131969333D01*
X189919761Y-131981428D01*
X190064904Y-132126571D01*
X190064904Y-131969333D01*
X189810904Y-131884666D02*
X189810904Y-131715333D01*
X190064904Y-131824190D01*
X189810904Y-131570190D02*
X189810904Y-131546000D01*
X189823000Y-131521809D01*
X189835095Y-131509714D01*
X189859285Y-131497619D01*
X189907666Y-131485523D01*
X189968142Y-131485523D01*
X190016523Y-131497619D01*
X190040714Y-131509714D01*
X190052809Y-131521809D01*
X190064904Y-131546000D01*
X190064904Y-131570190D01*
X190052809Y-131594380D01*
X190040714Y-131606476D01*
X190016523Y-131618571D01*
X189968142Y-131630666D01*
X189907666Y-131630666D01*
X189859285Y-131618571D01*
X189835095Y-131606476D01*
X189823000Y-131594380D01*
X189810904Y-131570190D01*
X187714904Y-131842333D02*
X187593952Y-131927000D01*
X187714904Y-131987476D02*
X187460904Y-131987476D01*
X187460904Y-131890714D01*
X187473000Y-131866523D01*
X187485095Y-131854428D01*
X187509285Y-131842333D01*
X187545571Y-131842333D01*
X187569761Y-131854428D01*
X187581857Y-131866523D01*
X187593952Y-131890714D01*
X187593952Y-131987476D01*
X187460904Y-131757666D02*
X187460904Y-131600428D01*
X187557666Y-131685095D01*
X187557666Y-131648809D01*
X187569761Y-131624619D01*
X187581857Y-131612523D01*
X187606047Y-131600428D01*
X187666523Y-131600428D01*
X187690714Y-131612523D01*
X187702809Y-131624619D01*
X187714904Y-131648809D01*
X187714904Y-131721380D01*
X187702809Y-131745571D01*
X187690714Y-131757666D01*
X187835095Y-132114476D02*
X187823000Y-132102380D01*
X187810904Y-132078190D01*
X187810904Y-132017714D01*
X187823000Y-131993523D01*
X187835095Y-131981428D01*
X187859285Y-131969333D01*
X187883476Y-131969333D01*
X187919761Y-131981428D01*
X188064904Y-132126571D01*
X188064904Y-131969333D01*
X187810904Y-131884666D02*
X187810904Y-131715333D01*
X188064904Y-131824190D01*
X187810904Y-131570190D02*
X187810904Y-131546000D01*
X187823000Y-131521809D01*
X187835095Y-131509714D01*
X187859285Y-131497619D01*
X187907666Y-131485523D01*
X187968142Y-131485523D01*
X188016523Y-131497619D01*
X188040714Y-131509714D01*
X188052809Y-131521809D01*
X188064904Y-131546000D01*
X188064904Y-131570190D01*
X188052809Y-131594380D01*
X188040714Y-131606476D01*
X188016523Y-131618571D01*
X187968142Y-131630666D01*
X187907666Y-131630666D01*
X187859285Y-131618571D01*
X187835095Y-131606476D01*
X187823000Y-131594380D01*
X187810904Y-131570190D01*
X193714904Y-131842333D02*
X193593952Y-131927000D01*
X193714904Y-131987476D02*
X193460904Y-131987476D01*
X193460904Y-131890714D01*
X193473000Y-131866523D01*
X193485095Y-131854428D01*
X193509285Y-131842333D01*
X193545571Y-131842333D01*
X193569761Y-131854428D01*
X193581857Y-131866523D01*
X193593952Y-131890714D01*
X193593952Y-131987476D01*
X193545571Y-131624619D02*
X193714904Y-131624619D01*
X193448809Y-131685095D02*
X193630238Y-131745571D01*
X193630238Y-131588333D01*
X193364904Y-131848380D02*
X193364904Y-131993523D01*
X193364904Y-131920952D02*
X193110904Y-131920952D01*
X193147190Y-131945142D01*
X193171380Y-131969333D01*
X193183476Y-131993523D01*
X193110904Y-131618571D02*
X193110904Y-131739523D01*
X193231857Y-131751619D01*
X193219761Y-131739523D01*
X193207666Y-131715333D01*
X193207666Y-131654857D01*
X193219761Y-131630666D01*
X193231857Y-131618571D01*
X193256047Y-131606476D01*
X193316523Y-131606476D01*
X193340714Y-131618571D01*
X193352809Y-131630666D01*
X193364904Y-131654857D01*
X193364904Y-131715333D01*
X193352809Y-131739523D01*
X193340714Y-131751619D01*
X195714904Y-131842333D02*
X195593952Y-131927000D01*
X195714904Y-131987476D02*
X195460904Y-131987476D01*
X195460904Y-131890714D01*
X195473000Y-131866523D01*
X195485095Y-131854428D01*
X195509285Y-131842333D01*
X195545571Y-131842333D01*
X195569761Y-131854428D01*
X195581857Y-131866523D01*
X195593952Y-131890714D01*
X195593952Y-131987476D01*
X195460904Y-131612523D02*
X195460904Y-131733476D01*
X195581857Y-131745571D01*
X195569761Y-131733476D01*
X195557666Y-131709285D01*
X195557666Y-131648809D01*
X195569761Y-131624619D01*
X195581857Y-131612523D01*
X195606047Y-131600428D01*
X195666523Y-131600428D01*
X195690714Y-131612523D01*
X195702809Y-131624619D01*
X195714904Y-131648809D01*
X195714904Y-131709285D01*
X195702809Y-131733476D01*
X195690714Y-131745571D01*
X195364904Y-131848380D02*
X195364904Y-131993523D01*
X195364904Y-131920952D02*
X195110904Y-131920952D01*
X195147190Y-131945142D01*
X195171380Y-131969333D01*
X195183476Y-131993523D01*
X195110904Y-131618571D02*
X195110904Y-131739523D01*
X195231857Y-131751619D01*
X195219761Y-131739523D01*
X195207666Y-131715333D01*
X195207666Y-131654857D01*
X195219761Y-131630666D01*
X195231857Y-131618571D01*
X195256047Y-131606476D01*
X195316523Y-131606476D01*
X195340714Y-131618571D01*
X195352809Y-131630666D01*
X195364904Y-131654857D01*
X195364904Y-131715333D01*
X195352809Y-131739523D01*
X195340714Y-131751619D01*
D15*
X201871809Y-115587047D02*
X202283047Y-115587047D01*
X202331428Y-115562857D01*
X202355619Y-115538666D01*
X202379809Y-115490285D01*
X202379809Y-115393523D01*
X202355619Y-115345142D01*
X202331428Y-115320952D01*
X202283047Y-115296761D01*
X201871809Y-115296761D01*
X201871809Y-114812952D02*
X201871809Y-115054857D01*
X202113714Y-115079047D01*
X202089523Y-115054857D01*
X202065333Y-115006476D01*
X202065333Y-114885523D01*
X202089523Y-114837142D01*
X202113714Y-114812952D01*
X202162095Y-114788761D01*
X202283047Y-114788761D01*
X202331428Y-114812952D01*
X202355619Y-114837142D01*
X202379809Y-114885523D01*
X202379809Y-115006476D01*
X202355619Y-115054857D01*
X202331428Y-115079047D01*
X204020190Y-116724000D02*
X203996000Y-116699809D01*
X203971809Y-116651428D01*
X203971809Y-116530476D01*
X203996000Y-116482095D01*
X204020190Y-116457904D01*
X204068571Y-116433714D01*
X204116952Y-116433714D01*
X204189523Y-116457904D01*
X204479809Y-116748190D01*
X204479809Y-116433714D01*
X203971809Y-115974095D02*
X203971809Y-116216000D01*
X204213714Y-116240190D01*
X204189523Y-116216000D01*
X204165333Y-116167619D01*
X204165333Y-116046666D01*
X204189523Y-115998285D01*
X204213714Y-115974095D01*
X204262095Y-115949904D01*
X204383047Y-115949904D01*
X204431428Y-115974095D01*
X204455619Y-115998285D01*
X204479809Y-116046666D01*
X204479809Y-116167619D01*
X204455619Y-116216000D01*
X204431428Y-116240190D01*
X204431428Y-115732190D02*
X204455619Y-115708000D01*
X204479809Y-115732190D01*
X204455619Y-115756380D01*
X204431428Y-115732190D01*
X204479809Y-115732190D01*
X204479809Y-115224190D02*
X204479809Y-115514476D01*
X204479809Y-115369333D02*
X203971809Y-115369333D01*
X204044380Y-115417714D01*
X204092761Y-115466095D01*
X204116952Y-115514476D01*
X203971809Y-115054857D02*
X203971809Y-114716190D01*
X204479809Y-114933904D01*
X203971809Y-114280761D02*
X203971809Y-114522666D01*
X204213714Y-114546857D01*
X204189523Y-114522666D01*
X204165333Y-114474285D01*
X204165333Y-114353333D01*
X204189523Y-114304952D01*
X204213714Y-114280761D01*
X204262095Y-114256571D01*
X204383047Y-114256571D01*
X204431428Y-114280761D01*
X204455619Y-114304952D01*
X204479809Y-114353333D01*
X204479809Y-114474285D01*
X204455619Y-114522666D01*
X204431428Y-114546857D01*
X204479809Y-114038857D02*
X203971809Y-114038857D01*
X204334666Y-113869523D01*
X203971809Y-113700190D01*
X204479809Y-113700190D01*
X122545809Y-116787619D02*
X122545809Y-117029523D01*
X122037809Y-117029523D01*
X122545809Y-116618285D02*
X122037809Y-116618285D01*
X122037809Y-116497333D01*
X122062000Y-116424761D01*
X122110380Y-116376380D01*
X122158761Y-116352190D01*
X122255523Y-116328000D01*
X122328095Y-116328000D01*
X122424857Y-116352190D01*
X122473238Y-116376380D01*
X122521619Y-116424761D01*
X122545809Y-116497333D01*
X122545809Y-116618285D01*
X122545809Y-115844190D02*
X122545809Y-116134476D01*
X122545809Y-115989333D02*
X122037809Y-115989333D01*
X122110380Y-116037714D01*
X122158761Y-116086095D01*
X122182952Y-116134476D01*
X122545809Y-115360380D02*
X122545809Y-115650666D01*
X122545809Y-115505523D02*
X122037809Y-115505523D01*
X122110380Y-115553904D01*
X122158761Y-115602285D01*
X122182952Y-115650666D01*
X122545809Y-114876571D02*
X122545809Y-115166857D01*
X122545809Y-115021714D02*
X122037809Y-115021714D01*
X122110380Y-115070095D01*
X122158761Y-115118476D01*
X122182952Y-115166857D01*
X122037809Y-114707238D02*
X122037809Y-114368571D01*
X122545809Y-114586285D01*
X122521619Y-114199238D02*
X122545809Y-114126666D01*
X122545809Y-114005714D01*
X122521619Y-113957333D01*
X122497428Y-113933142D01*
X122449047Y-113908952D01*
X122400666Y-113908952D01*
X122352285Y-113933142D01*
X122328095Y-113957333D01*
X122303904Y-114005714D01*
X122279714Y-114102476D01*
X122255523Y-114150857D01*
X122231333Y-114175047D01*
X122182952Y-114199238D01*
X122134571Y-114199238D01*
X122086190Y-114175047D01*
X122062000Y-114150857D01*
X122037809Y-114102476D01*
X122037809Y-113981523D01*
X122062000Y-113908952D01*
X122037809Y-113739619D02*
X122037809Y-113425142D01*
X122231333Y-113594476D01*
X122231333Y-113521904D01*
X122255523Y-113473523D01*
X122279714Y-113449333D01*
X122328095Y-113425142D01*
X122449047Y-113425142D01*
X122497428Y-113449333D01*
X122521619Y-113473523D01*
X122545809Y-113521904D01*
X122545809Y-113667047D01*
X122521619Y-113715428D01*
X122497428Y-113739619D01*
X122037809Y-113255809D02*
X122037809Y-112941333D01*
X122231333Y-113110666D01*
X122231333Y-113038095D01*
X122255523Y-112989714D01*
X122279714Y-112965523D01*
X122328095Y-112941333D01*
X122449047Y-112941333D01*
X122497428Y-112965523D01*
X122521619Y-112989714D01*
X122545809Y-113038095D01*
X122545809Y-113183238D01*
X122521619Y-113231619D01*
X122497428Y-113255809D01*
X122037809Y-112796190D02*
X122037809Y-112505904D01*
X122545809Y-112651047D02*
X122037809Y-112651047D01*
X122545809Y-112046285D02*
X122303904Y-112215619D01*
X122545809Y-112336571D02*
X122037809Y-112336571D01*
X122037809Y-112143047D01*
X122062000Y-112094666D01*
X122086190Y-112070476D01*
X122134571Y-112046285D01*
X122207142Y-112046285D01*
X122255523Y-112070476D01*
X122279714Y-112094666D01*
X122303904Y-112143047D01*
X122303904Y-112336571D01*
D12*
X120854895Y-115169276D02*
X121512876Y-115169276D01*
X121590285Y-115130571D01*
X121628990Y-115091866D01*
X121667695Y-115014457D01*
X121667695Y-114859638D01*
X121628990Y-114782228D01*
X121590285Y-114743523D01*
X121512876Y-114704819D01*
X120854895Y-114704819D01*
X121125828Y-113969428D02*
X121667695Y-113969428D01*
X120816190Y-114162952D02*
X121396761Y-114356476D01*
X121396761Y-113853314D01*
M02*
