M48
; DRILL file {KiCad (5.1.5-0-10_14)} date Saturday, July 11, 2020 at 11:44:54 PM
; FORMAT={-:-/ absolute / inch / decimal}
; #@! TF.CreationDate,2020-07-11T23:44:54-04:00
; #@! TF.GenerationSoftware,Kicad,Pcbnew,(5.1.5-0-10_14)
FMAT,2
INCH
T1C0.0118
T2C0.0157
T3C0.0197
T4C0.0315
T5C0.0394
T6C0.1260
%
G90
G05
T1
X3.38Y-4.2
X3.38Y-4.35
X3.38Y-4.75
X3.38Y-4.9
X3.41Y-4.55
X3.45Y-4.1475
X3.45Y-4.9475
X3.48Y-4.45
X3.48Y-4.65
X3.55Y-4.1475
X3.55Y-4.9475
X3.58Y-4.55
X3.58Y-4.75
X3.5975Y-4.805
X3.65Y-4.1475
X3.65Y-4.9475
X3.68Y-4.65
X3.685Y-4.8175
X3.75Y-4.1475
X3.75Y-4.9475
X3.775Y-4.8275
X3.78Y-4.75
X3.85Y-4.1475
X3.85Y-4.9475
X3.8625Y-4.84
X3.95Y-4.1475
X3.95Y-4.8525
X3.95Y-4.9475
X3.96Y-4.7575
X4.025Y-4.8775
X4.05Y-4.1475
X4.05Y-4.7475
X4.05Y-4.9475
X4.0775Y-4.21
X4.1125Y-4.89
X4.1375Y-4.735
X4.15Y-4.1475
X4.15Y-4.9475
X4.1775Y-4.2925
X4.2025Y-4.9
X4.225Y-4.7225
X4.25Y-4.1475
X4.255Y-4.9125
X4.2775Y-4.375
X4.315Y-4.7125
X4.35Y-4.1475
X4.3775Y-4.4575
X4.4025Y-4.7
X4.4225Y-4.485
X4.49Y-4.6875
X4.5675Y-4.6275
X4.6Y-4.25
X4.65Y-4.1475
X4.75Y-4.1475
X4.7775Y-4.21
X4.795Y-4.3275
X4.825Y-4.19
X5.0039Y-4.3898
X5.005Y-4.32
X5.05Y-4.1475
X5.125Y-4.3225
X5.15Y-4.1475
X5.2125Y-4.31
X5.25Y-4.1475
X5.25Y-4.575
X5.3Y-4.2975
X5.35Y-4.1475
X5.35Y-4.46
X5.39Y-4.2875
X5.45Y-4.1475
X5.45Y-4.575
X5.4775Y-4.275
X5.55Y-4.1475
X5.55Y-4.46
X5.565Y-4.2625
X5.65Y-4.1475
X5.65Y-4.575
X5.6525Y-4.25
X5.7425Y-4.24
X5.75Y-4.1475
X5.75Y-4.46
X5.83Y-4.2275
X5.85Y-4.1475
X5.85Y-4.575
X5.9175Y-4.215
X5.95Y-4.1475
X5.95Y-4.46
X6.005Y-4.2025
X6.05Y-4.1475
X6.05Y-4.575
X6.095Y-4.1925
X6.15Y-4.46
X6.1825Y-4.18
X6.19Y-4.9125
X6.25Y-4.575
X6.2775Y-4.1675
X6.28Y-4.925
X6.35Y-4.1575
X6.35Y-4.46
X6.3775Y-4.935
X6.45Y-4.145
X6.45Y-4.575
X6.45Y-4.9475
X6.55Y-4.46
X6.565Y-4.1325
X6.6083Y-4.4921
X6.65Y-4.575
X6.6525Y-4.96
X6.6535Y-4.5315
X6.695Y-3.3
X6.695Y-3.5
X6.695Y-3.7
X6.695Y-3.9
X6.6988Y-4.4921
X6.7Y-2.7
X6.7Y-2.9
X6.7Y-3.1
X6.7Y-5.33
X6.7Y-5.53
X6.7087Y-4.1339
X6.7087Y-4.3898
X6.7303Y-4.8504
X6.7425Y-5.05
X6.75Y-4.465
X6.775Y-2.625
X6.775Y-5.605
X6.7756Y-5.2264
X6.7835Y-5.187
X6.7874Y-4.1181
X6.7875Y-4.435
X6.795Y-3.4
X6.795Y-3.6
X6.795Y-3.8
X6.8Y-2.8
X6.8Y-3.0
X6.8Y-3.2
X6.815Y-5.2185
X6.8327Y-4.6142
X6.8386Y-4.9587
X6.8681Y-4.2028
X6.8701Y-4.3228
X6.8701Y-4.565
X6.8701Y-4.6772
X6.8701Y-4.7756
X6.872Y-4.4213
X6.895Y-3.295
X6.895Y-3.495
X6.895Y-3.695
X6.9Y-2.695
X6.9Y-2.895
X6.9Y-3.095
X6.9154Y-4.1811
X6.9173Y-5.0531
X6.937Y-4.998
X6.9606Y-3.7461
X6.9606Y-3.8445
X6.9606Y-3.8878
X6.9646Y-4.3228
X6.9646Y-4.4213
X6.9646Y-4.563
X6.9646Y-4.6772
X6.9646Y-4.7756
X6.9685Y-4.1299
X6.9685Y-4.9685
X6.975Y-2.625
X6.975Y-5.605
X6.9803Y-4.0846
X6.9803Y-4.1752
X6.9803Y-4.9232
X6.9803Y-5.0138
X6.9823Y-2.665
X6.9823Y-3.7067
X7.0039Y-3.8012
X7.0039Y-3.8878
X7.01Y-2.8
X7.01Y-3.0
X7.01Y-3.2
X7.01Y-3.4
X7.0118Y-3.6929
X7.1043Y-3.6831
X7.1693Y-4.0846
X7.1693Y-4.1752
X7.1693Y-4.9213
X7.1693Y-5.0157
X7.175Y-2.625
X7.185Y-3.3325
X7.215Y-2.73
X7.215Y-3.275
X7.215Y-3.39
X7.2362Y-5.0827
X7.24Y-2.755
X7.245Y-5.215
X7.265Y-3.105
X7.2717Y-4.0295
X7.29Y-2.755
X7.29Y-3.455
X7.29Y-3.775
X7.315Y-2.73
X7.315Y-3.105
X7.3366Y-4.0846
X7.3366Y-4.1732
X7.3366Y-4.9232
X7.3366Y-5.0157
X7.34Y-2.755
X7.365Y-3.105
X7.39Y-2.75
X7.4016Y-5.0689
X7.415Y-3.105
X7.437Y-5.1043
X7.44Y-2.75
X7.465Y-3.105
X7.4685Y-5.0591
X7.49Y-2.75
X7.5039Y-4.0846
X7.5039Y-4.1772
X7.5039Y-4.9213
X7.5039Y-5.0157
X7.5098Y-3.9587
X7.515Y-3.105
X7.54Y-2.75
X7.5531Y-3.9429
X7.59Y-3.105
X7.615Y-2.73
X7.615Y-3.275
X7.615Y-3.39
X7.626Y-5.0531
X7.6614Y-5.0157
X7.6614Y-5.1161
X7.69Y-2.75
X7.69Y-3.105
X7.6929Y-4.0846
X7.6929Y-4.1752
X7.6929Y-4.9232
X7.6929Y-5.0138
X7.7047Y-4.1299
X7.7047Y-4.9685
X7.7087Y-3.9469
X7.7087Y-4.3228
X7.7087Y-4.4213
X7.7087Y-4.5335
X7.7087Y-4.6772
X7.7087Y-4.7756
X7.74Y-2.75
X7.7559Y-5.0531
X7.765Y-3.41
X7.775Y-5.605
X7.79Y-2.78
X7.79Y-3.775
X7.8012Y-4.4213
X7.8031Y-4.2047
X7.8031Y-4.3228
X7.8031Y-4.5335
X7.8031Y-4.6772
X7.8031Y-4.7756
X7.8346Y-4.2028
X7.84Y-2.815
X7.84Y-3.41
X7.8524Y-4.4843
X7.8563Y-4.9882
X7.8563Y-5.0512
X7.8583Y-3.9764
X7.86Y-4.73
X7.865Y-3.775
X7.89Y-2.845
X7.89Y-3.41
X7.9035Y-4.9882
X7.9035Y-5.063
X7.9055Y-4.3366
X7.915Y-3.775
X7.937Y-4.3051
X7.94Y-2.88
X7.94Y-3.41
X7.9469Y-4.378
X7.96Y-3.0375
X7.96Y-4.83
X7.9625Y-4.1775
X7.965Y-3.13
X7.965Y-3.2475
X7.965Y-3.79
X7.965Y-3.9075
X7.975Y-5.605
X7.9783Y-4.3465
X7.9925Y-3.1875
X7.995Y-3.8475
X8.005Y-2.625
X8.0315Y-4.2087
X8.035Y-2.665
X8.0551Y-4.2697
X8.0551Y-4.3484
X8.0551Y-4.3917
X8.06Y-2.73
X8.06Y-2.93
X8.06Y-4.73
X8.1575Y-4.3484
X8.1575Y-4.3917
X8.16Y-2.83
X8.16Y-3.03
X8.16Y-3.23
X8.16Y-3.43
X8.16Y-3.63
X8.16Y-3.83
X8.16Y-4.03
X8.16Y-4.23
X8.16Y-4.63
X8.16Y-4.83
X8.175Y-2.625
X8.175Y-5.605
X8.1791Y-4.3701
X8.2Y-5.455
X8.26Y-2.93
X8.26Y-3.13
X8.26Y-3.33
X8.26Y-3.53
X8.26Y-3.73
X8.26Y-3.93
X8.26Y-4.13
X8.26Y-4.33
X8.26Y-4.53
X8.26Y-4.73
X8.265Y-2.725
X8.35Y-2.83
X8.35Y-3.03
X8.35Y-3.23
X8.35Y-3.43
X8.35Y-3.63
X8.35Y-3.83
X8.35Y-4.03
X8.35Y-4.23
X8.35Y-4.43
X8.35Y-4.63
X8.36Y-4.83
X8.375Y-2.625
X8.375Y-5.605
X8.45Y-2.7
X8.45Y-2.93
X8.45Y-3.13
X8.45Y-3.33
X8.45Y-3.53
X8.45Y-3.73
X8.45Y-3.93
X8.45Y-4.13
X8.45Y-4.33
X8.45Y-4.53
X8.45Y-4.73
X8.45Y-4.93
X8.45Y-5.13
X8.45Y-5.33
X8.45Y-5.53
T2
X4.855Y-4.215
X4.9Y-4.265
X4.965Y-4.165
X4.965Y-4.265
X5.01Y-4.215
X5.0177Y-4.6201
X5.0669Y-4.5768
X5.1004Y-4.4921
X5.1496Y-4.5335
X5.1988Y-4.4921
X6.7953Y-4.5787
X6.9154Y-4.0453
X6.9528Y-4.0059
X6.9528Y-5.0925
X7.0875Y-2.74
X7.0875Y-3.4
X7.135Y-2.78
X7.135Y-3.44
X7.3071Y-3.9902
X7.3661Y-5.1083
X7.7205Y-4.0059
X7.7205Y-5.0925
X7.7579Y-4.0453
X7.878Y-4.5197
X7.9921Y-4.4429
X8.0374Y-4.4921
X8.045Y-5.16
X8.045Y-5.26
X8.045Y-5.36
T3
X4.5256Y-4.3484
X4.5256Y-4.4075
X4.5256Y-4.4803
X4.5256Y-4.5394
X4.5846Y-4.3484
X4.5846Y-4.4075
X4.5846Y-4.4803
X4.5846Y-4.5394
X4.6516Y-4.3484
X4.6516Y-4.4075
X4.6516Y-4.6102
X4.7185Y-4.3484
X4.7185Y-4.4075
X4.7185Y-4.4803
X4.7185Y-4.5394
X4.7185Y-4.6102
X4.8346Y-4.4193
X4.8346Y-4.6004
X4.9646Y-4.4193
X4.9646Y-4.6004
X6.748Y-4.1122
X6.748Y-4.4232
T4
X3.4Y-4.1
X3.4Y-5.005
X3.5Y-4.1
X3.5Y-5.005
X3.6Y-4.1
X3.6Y-5.005
X3.7Y-4.1
X3.7Y-5.005
X3.8Y-4.1
X3.8Y-5.005
X3.9Y-4.1
X3.9Y-5.005
X4.0Y-4.1
X4.0Y-5.005
X4.1Y-4.1
X4.1Y-5.005
X4.2Y-4.1
X4.2Y-5.005
X4.3Y-4.1
X4.3Y-5.005
X4.4Y-4.1
X4.4Y-5.005
X4.5Y-4.1
X4.5Y-5.005
X4.6Y-4.1
X4.6Y-5.005
X4.7Y-4.1
X4.7Y-5.005
X4.8Y-4.1
X4.8Y-5.005
X4.9Y-4.1
X4.9Y-5.005
X5.0Y-4.1
X5.0Y-5.005
X5.1Y-4.1
X5.1Y-5.005
X5.2Y-4.1
X5.2Y-5.005
X5.3Y-4.1
X5.3Y-5.005
X5.4Y-4.1
X5.4Y-5.005
X5.5Y-4.1
X5.5Y-5.005
X5.6Y-4.1
X5.6Y-5.005
X5.7Y-4.1
X5.7Y-5.005
X5.8Y-4.1
X5.8Y-5.005
X5.9Y-4.1
X5.9Y-5.005
X6.0Y-4.1
X6.0Y-5.005
X6.1Y-4.1
X6.1Y-5.005
X6.2Y-4.1
X6.2Y-5.005
X6.3Y-4.1
X6.3Y-5.005
X6.4Y-4.1
X6.4Y-5.005
X6.5Y-4.1
X6.5Y-5.005
T5
X7.1833Y-5.3583
X7.1833Y-5.5142
X7.2283Y-5.4362
X7.2734Y-5.3583
X7.2734Y-5.5142
X7.3185Y-5.4362
X7.3636Y-5.3583
X7.3636Y-5.5142
X7.4087Y-5.4362
X7.4537Y-5.3583
X7.4537Y-5.5142
X7.4988Y-5.4362
X7.5439Y-5.3583
X7.5439Y-5.5142
X7.589Y-5.4362
T6
X6.8819Y-5.439
X7.8661Y-5.439
T0
M30
