G04 #@! TF.GenerationSoftware,KiCad,Pcbnew,(5.1.5-0-10_14)*
G04 #@! TF.CreationDate,2020-07-05T23:06:11-04:00*
G04 #@! TF.ProjectId,MacPlusVGA,4d616350-6c75-4735-9647-412e6b696361,rev?*
G04 #@! TF.SameCoordinates,Original*
G04 #@! TF.FileFunction,Legend,Bot*
G04 #@! TF.FilePolarity,Positive*
%FSLAX46Y46*%
G04 Gerber Fmt 4.6, Leading zero omitted, Abs format (unit mm)*
G04 Created by KiCad (PCBNEW (5.1.5-0-10_14)) date 2020-07-05 23:06:11*
%MOMM*%
%LPD*%
G04 APERTURE LIST*
%ADD10C,0.120000*%
%ADD11C,0.203200*%
%ADD12O,1.752400X1.752400*%
%ADD13R,1.752400X1.752400*%
%ADD14C,4.152400*%
%ADD15C,1.752400*%
G04 APERTURE END LIST*
D10*
X85030000Y-105363500D02*
X85030000Y-114633500D01*
X166430000Y-105363500D02*
X85030000Y-105363500D01*
X166430000Y-125903500D02*
X166430000Y-105363500D01*
X85030000Y-125903500D02*
X166430000Y-125903500D01*
X85030000Y-116633500D02*
X85030000Y-125903500D01*
X85030000Y-114633500D02*
G75*
G02X85030000Y-116633500I0J-1000000D01*
G01*
D11*
X125284895Y-115904433D02*
X125865466Y-115904433D01*
X125981580Y-115943138D01*
X126058990Y-116020547D01*
X126097695Y-116136661D01*
X126097695Y-116214071D01*
X126097695Y-115091633D02*
X126097695Y-115556090D01*
X126097695Y-115323861D02*
X125284895Y-115323861D01*
X125401009Y-115401271D01*
X125478419Y-115478680D01*
X125517123Y-115556090D01*
%LPC*%
D12*
X86360000Y-104140000D03*
X165100000Y-127127000D03*
X88900000Y-104140000D03*
X162560000Y-127127000D03*
X91440000Y-104140000D03*
X160020000Y-127127000D03*
X93980000Y-104140000D03*
X157480000Y-127127000D03*
X96520000Y-104140000D03*
X154940000Y-127127000D03*
X99060000Y-104140000D03*
X152400000Y-127127000D03*
X101600000Y-104140000D03*
X149860000Y-127127000D03*
X104140000Y-104140000D03*
X147320000Y-127127000D03*
X106680000Y-104140000D03*
X144780000Y-127127000D03*
X109220000Y-104140000D03*
X142240000Y-127127000D03*
X111760000Y-104140000D03*
X139700000Y-127127000D03*
X114300000Y-104140000D03*
X137160000Y-127127000D03*
X116840000Y-104140000D03*
X134620000Y-127127000D03*
X119380000Y-104140000D03*
X132080000Y-127127000D03*
X121920000Y-104140000D03*
X129540000Y-127127000D03*
X124460000Y-104140000D03*
X127000000Y-127127000D03*
X127000000Y-104140000D03*
X124460000Y-127127000D03*
X129540000Y-104140000D03*
X121920000Y-127127000D03*
X132080000Y-104140000D03*
X119380000Y-127127000D03*
X134620000Y-104140000D03*
X116840000Y-127127000D03*
X137160000Y-104140000D03*
X114300000Y-127127000D03*
X139700000Y-104140000D03*
X111760000Y-127127000D03*
X142240000Y-104140000D03*
X109220000Y-127127000D03*
X144780000Y-104140000D03*
X106680000Y-127127000D03*
X147320000Y-104140000D03*
X104140000Y-127127000D03*
X149860000Y-104140000D03*
X101600000Y-127127000D03*
X152400000Y-104140000D03*
X99060000Y-127127000D03*
X154940000Y-104140000D03*
X96520000Y-127127000D03*
X157480000Y-104140000D03*
X93980000Y-127127000D03*
X160020000Y-104140000D03*
X91440000Y-127127000D03*
X162560000Y-104140000D03*
X88900000Y-127127000D03*
X165100000Y-104140000D03*
D13*
X86360000Y-127127000D03*
D14*
X199800000Y-138150000D03*
X174800000Y-138150000D03*
D15*
X182455000Y-140060000D03*
X184745000Y-140060000D03*
X187035000Y-140060000D03*
X189325000Y-140060000D03*
X191615000Y-140060000D03*
X183600000Y-138080000D03*
X185890000Y-138080000D03*
X188180000Y-138080000D03*
X190470000Y-138080000D03*
X192760000Y-138080000D03*
X182455000Y-136100000D03*
X184745000Y-136100000D03*
X187035000Y-136100000D03*
X189325000Y-136100000D03*
D13*
X191615000Y-136100000D03*
M02*
